<?xml version="1.0" encoding="utf-8"?>
<!-- Generator: Adobe Illustrator 21.1.0, SVG Export Plug-In . SVG Version: 6.00 Build 0)  -->
<svg version="1.1" id="Calque_1" xmlns="http://www.w3.org/2000/svg" xmlns:xlink="http://www.w3.org/1999/xlink" x="0px" y="0px"
	 viewBox="0 0 206.7 145.4" style="enable-background:new 0 0 206.7 145.4;" xml:space="preserve">
<style type="text/css">
	.st0{fill:#6E7175;}
	.st1{fill:#AE9B6B;}
</style>
<g>
	<path class="st0" d="M69.3,67.4c0.4-3.8,2.8-9.2,8.7-9.2c6.5,0,8,5.8,8,9.2H69.3z M98.7,77.1c0.2-1,0.5-3.2,0.5-5.6
		c0-11.3-5.6-22.7-20.3-22.7c-15.8,0-23,12.7-23,24.3c0,14.2,8.8,23.3,24.3,23.3c6.1,0,11.8-1,16.5-2.9l-1.9-9.6
		c-3.8,1.2-7.7,1.9-12.6,1.9c-6.6,0-12.4-2.8-12.8-8.6H98.7z M16.3,69.3c0-0.9,0.1-1.8,0.3-2.6c0.9-4.1,4.5-7,8.3-7
		c6.6,0,9.8,5.6,9.8,12.7c0,8.2-3.7,12.8-9.8,12.8c-4.1,0-7.3-2.9-8.3-6.7c-0.2-0.7-0.3-1.6-0.3-2.5V69.3z M2.1,81.8
		c0,5.1-0.2,10.6-0.4,13.6h12l0.6-6.3h0.2c3.3,5.4,8.4,7.3,13.7,7.3c10.4,0,20.8-8.2,20.8-24.6c0.1-14-7.9-23-18.8-23
		c-6.3,0-11.1,2.5-13.8,6.4h-0.2V29.3H2.1V81.8z"/>
	<path class="st1" d="M174.9,93.2c3.2,1.9,7.7,3.2,12.7,3.2c10.7,0,16.8-5.7,16.8-13.6c0-6.7-4-10.6-11.8-13.6
		c-5.9-2.2-8.6-3.9-8.6-7.6c0-3.3,2.7-6.1,7.5-6.1c4.2,0,7.4,1.5,9.2,2.6l2-6c-2.5-1.5-6.5-2.8-11.1-2.8c-9.7,0-15.5,6-15.5,13.2
		c0,5.4,3.8,9.9,11.9,12.7c6,2.2,8.4,4.4,8.4,8.3c0,3.7-2.8,6.7-8.7,6.7c-4.1,0-8.4-1.7-10.8-3.3L174.9,93.2z M127,50.3l16.6,41.5
		c0.4,1,0.6,1.7,0.6,2.1c0,0.5-0.3,1.1-0.7,2c-1.9,4.2-4.7,7.3-6.9,9.1c-2.4,2-5.1,3.3-7.2,4l2,6.9c2-0.4,6-1.8,10-5.3
		c5.6-4.8,9.6-12.7,15.4-28.2l12.3-32.1h-8.6l-8.9,26.4c-1.1,3.3-2,6.7-2.9,9.4h-0.2c-0.7-2.7-1.9-6.2-2.9-9.2L136,50.3H127z"/>
</g>
<rect x="110.8" y="1.5" class="st0" width="4.3" height="141.7"/>
</svg>
