<?xml version="1.0" encoding="utf-8"?>
<!-- Generator: Adobe Illustrator 21.1.0, SVG Export Plug-In . SVG Version: 6.00 Build 0)  -->
<svg version="1.1" id="Calque_1" xmlns="http://www.w3.org/2000/svg" xmlns:xlink="http://www.w3.org/1999/xlink" x="0px" y="0px"
	 viewBox="0 0 464.2 150.9" style="enable-background:new 0 0 464.2 150.9;" xml:space="preserve">
<style type="text/css">
	.st0{fill:#FFFFFF;}
</style>
<g>
	<path class="st0" d="M72.4,72.1c0.4-3.8,2.8-9.1,8.7-9.1c6.5,0,7.9,5.7,7.9,9.1H72.4z M101.6,81.7c0.2-1,0.5-3.1,0.5-5.5
		c0-11.2-5.5-22.5-20.1-22.5c-15.7,0-22.8,12.7-22.8,24.1c0,14.1,8.8,23,24.1,23c6.1,0,11.7-0.9,16.4-2.8l-1.8-9.5
		c-3.8,1.2-7.7,1.9-12.5,1.9c-6.6,0-12.3-2.8-12.7-8.6H101.6z M18.4,73.9c0-0.9,0.1-1.8,0.3-2.6c0.9-4.1,4.4-6.9,8.2-6.9
		c6.6,0,9.7,5.5,9.7,12.6c0,8.1-3.7,12.7-9.7,12.7c-4.1,0-7.3-2.9-8.2-6.6c-0.2-0.7-0.3-1.6-0.3-2.5V73.9z M15.9,99.8l0.6-6.3h0.2
		c3.2,5.3,8.3,7.3,13.6,7.3c10.3,0,20.7-8.1,20.7-24.4C51,62.6,43,53.6,32.2,53.6c-6.3,0-11,2.5-13.7,6.4h-0.2V34.2h-14v52.1
		c0,5.1-0.2,10.5-0.4,13.5H15.9z"/>
</g>
<rect x="115.3" y="6.8" class="st0" width="4.4" height="141.7"/>
<g>
	<path class="st0" d="M198.4,100.7H185V35.2h13.4V100.7z M147.6,81.5c-0.8,0.6-1.3,1.3-1.7,2.1c-0.1,0.2-0.2,0.5-0.3,0.8l0,0.1
		c-0.3,1.1-0.4,2.2-0.1,3.4c0.1,0.4,0.2,0.7,0.3,1.1c0.2,0.3,0.4,0.6,0.6,0.9c0.9,1.2,2.2,1.8,4,2c4.2-0.1,6.8-2.1,7.8-5.8v-6.8h-4
		C151.1,79.6,148.9,80.4,147.6,81.5 M153,54.7c0.2,0,0.3,0,0.5,0.1c1.4,0.1,2.9,0.3,4.3,0.5c1.5,0.2,2.9,0.6,4.2,1.2
		c1.3,0.6,2.5,1.3,3.6,2.1c1.4,1.2,2.5,2.8,3.4,4.7c1.4,3.1,2.1,6.3,2.1,9.7c0,1.4,0,2.8,0.1,4.1v17.6l0.6,5.4l-11.9,0.2l-1.1-4.8
		c-3.7,4.6-9.1,6.4-16.3,5.5c-6.6-1.8-10.2-6.1-10.7-12.8c-0.1-1.9,0.1-3.6,0.5-5.2c0.3-1.2,0.9-2.4,1.6-3.5
		c0.8-1.2,1.7-2.2,2.7-3.1c1-0.9,2.1-1.6,3.3-2.2c1-0.5,2-1,3.1-1.5c3.9-1.4,8.8-2.1,14.6-2c-0.1-4.1-2.5-6.3-7-6.7
		c-4.6,0-9.1,1-13.3,3.1l-2.5-8.6l4.9-2C143.8,55.1,148.1,54.5,153,54.7 M271.9,57c3.7,2.7,5.9,6.5,6.6,11.3
		c0.2,1.5,0.3,2.9,0.3,4.4c0,0.1,0,0.1,0,0.2v27.6l-13.3,0.1V74.3c0.1-4.5-1.3-7.3-4.3-8.4c-0.1,0-0.1,0-0.2,0
		c-0.6-0.1-1.2-0.2-1.8-0.2c-0.4,0-0.7,0-1.1,0c-1.7,0.3-3,1.2-4.1,2.5c-0.2,0.3-0.4,0.5-0.6,0.8c-0.2,0.2-0.3,0.5-0.4,0.7
		c-0.3,0.6-0.4,1-0.4,1.2v29.5l-13.7,0.1v-27c0-1.2-0.1-2.3-0.3-3.1c-0.5-1.6-1.5-2.9-3-3.9c-0.2-0.2-0.5-0.3-0.8-0.4
		c-0.7-0.3-1.5-0.5-2.4-0.5c-2.4,0.2-4.3,1.2-5.5,3.1c-0.3,0.5-0.6,1.1-0.9,1.8c-0.4,0.9-0.6,1.9-0.5,3v26.8h-13.2V55.8h11.4v5.8
		l0.8,0.1c2.6-3.9,6.1-6.2,10.4-6.8c3.5-0.4,6.7,0.1,9.5,1.5c2.5,1.6,4.2,3.4,5.2,5.7h0.8c2.6-4,6.2-6.4,10.9-7.1
		c4.1-0.5,7.6,0.1,10.5,1.9C271.7,56.9,271.8,56.9,271.9,57 M369.6,54.9v12.7c-3.2-0.6-6.1-0.3-8.7,0.8c-2.8,1.7-4.3,4.2-4.7,7.5
		v24.6h-13.7v-45h12v8.3h0.5c1.4-3.7,3.3-6.2,5.9-7.5C364,54.6,366.9,54.1,369.6,54.9 M326,60c0.3,0.3,0.5,0.7,0.8,1
		c1.3,1.7,2.3,3.6,3,5.6c0.7,2.1,1.2,4.2,1.5,6.4c0.3,2.2,0.4,4.4,0.1,6.6c-0.1,0.9-0.2,1.7-0.4,2.6h-28.3c0.1,2,0.9,3.9,2.4,5.7
		c1.7,1.4,3.6,2.3,5.8,2.8c3.6,0.7,7.7,0.6,12.1-0.3c1.5-0.3,2.9-0.8,4.3-1.3l1.6,9.5c-3.3,1.6-7.3,2.5-12,2.7
		c-2.2,0.1-4.4,0.1-6.5-0.1c-2-0.1-3.9-0.5-5.7-1c-0.4-0.1-0.7-0.3-1.1-0.4c-6.7-2.6-11-7.4-13.1-14.6c-1.3-4.6-1.2-9.4,0.1-14.4
		c1.8-6.4,5.7-11.2,11.5-14.3c1.7-0.9,3.5-1.5,5.3-1.8c4.8-0.9,9.3-0.3,13.6,1.8C323.1,57.5,324.7,58.6,326,60 M319.5,73
		c-0.5-5-2.5-8-6-9c-1.9-0.4-3.6-0.3-5,0.2c-3.2,1.2-5.2,4.1-5.9,8.8H319.5z M391.1,55.4l8.8,30.6l7.9-30.6h14.4l-11.1,31.7
		c-2.4,8.4-6.3,16.5-11.8,24.3c-4,5.3-9.3,8.3-16.1,9.1l-2.8-11.7c5-0.9,8.7-3.2,11.2-7.1c0.6-0.9,1-1.7,1.1-2.3v-1.7l-17-42.3
		H391.1z M441.3,67.9c0.3,2.6,2.5,4.2,6.3,4.9c7.4,2.1,11.7,6.1,12.7,12.2c0.6,6.5-1.9,11.2-7.4,14c-4.7,2.1-10.5,2.8-17.4,2
		c-3-0.6-5.8-1.5-8.2-2.7l2.3-9.9c6.7,3,11.6,4,14.8,2.9c1.9-0.6,2.9-1.7,3-3.1c-0.1-2.2-1.1-3.6-3-4.2c0,0-0.1,0-0.1,0
		c-6.5-1.7-11.3-4.6-14.1-8.5c-2-3.1-2.4-6.5-1.3-10c2.4-7,7.7-10.6,16.1-10.8c4.9-0.1,9.4,0.7,13.5,2.4l-2.4,9.6
		c-2-1.3-4.5-2.1-7.6-2.4c-3-0.3-5.1,0.2-6.4,1.4C441.6,66.3,441.3,67,441.3,67.9"/>
</g>
</svg>
