<?xml version="1.0" encoding="utf-8"?>
<!-- Generator: Adobe Illustrator 21.1.0, SVG Export Plug-In . SVG Version: 6.00 Build 0)  -->
<svg version="1.1" id="Calque_2" xmlns="http://www.w3.org/2000/svg" xmlns:xlink="http://www.w3.org/1999/xlink" x="0px" y="0px"
	 viewBox="0 0 468.6 147.8" style="enable-background:new 0 0 468.6 147.8;" xml:space="preserve">
<style type="text/css">
	.st0{fill:#6D7175;}
	.st1{fill:#B5A26C;}
</style>
<g>
	<path class="st0" d="M75.5,67.6c0.4-3.8,2.8-9.1,8.7-9.1c6.5,0,7.9,5.7,7.9,9.1H75.5z M104.7,77.2c0.2-1,0.5-3.1,0.5-5.5
		c0-11.2-5.5-22.5-20.1-22.5c-15.7,0-22.8,12.7-22.8,24.1c0,14.1,8.8,23,24.1,23c6.1,0,11.7-0.9,16.3-2.8l-1.8-9.5
		c-3.8,1.2-7.7,1.8-12.5,1.8c-6.6,0-12.3-2.8-12.7-8.6H104.7z M21.5,69.4c0-0.9,0.1-1.8,0.3-2.6c0.9-4.1,4.4-6.9,8.2-6.9
		c6.6,0,9.7,5.5,9.7,12.6c0,8.1-3.7,12.7-9.7,12.7c-4.1,0-7.3-2.9-8.2-6.7c-0.2-0.7-0.3-1.6-0.3-2.5V69.4z M19,95.3l0.6-6.3h0.2
		c3.2,5.4,8.3,7.3,13.6,7.3c10.3,0,20.7-8.1,20.7-24.4c0.1-13.9-7.9-22.8-18.7-22.8c-6.3,0-11,2.5-13.7,6.4h-0.2V29.7h-14v52.1
		c0,5.1-0.2,10.5-0.4,13.5H19z"/>
</g>
<rect x="118.4" y="2.2" class="st0" width="4.3" height="141.7"/>
<g>
	<path class="st1" d="M201.5,96.1h-13.4V30.7h13.4V96.1z M150.6,76.9c-0.7,0.6-1.3,1.3-1.7,2.1c-0.1,0.3-0.2,0.5-0.3,0.8l0,0.2
		c-0.4,1.1-0.4,2.2-0.1,3.4c0.1,0.4,0.2,0.7,0.3,1.1c0.2,0.3,0.4,0.6,0.6,0.9c0.9,1.2,2.2,1.8,4,2c4.2-0.1,6.8-2.1,7.8-5.8v-6.8h-4
		C154.1,75.1,152,75.9,150.6,76.9 M156.1,50.2c0.2,0,0.3,0,0.5,0.1c1.4,0.1,2.9,0.3,4.3,0.5c1.5,0.2,2.9,0.6,4.2,1.2
		c1.3,0.6,2.5,1.3,3.6,2.1c1.4,1.2,2.5,2.8,3.4,4.7c1.4,3.1,2.1,6.3,2.1,9.7c0,1.4,0,2.8,0.1,4.1v17.6l0.6,5.4L163,95.8l-1.1-4.8
		c-3.7,4.6-9.1,6.4-16.3,5.5c-6.6-1.8-10.2-6.1-10.7-12.8c-0.1-1.9,0.1-3.6,0.5-5.2c0.3-1.2,0.9-2.4,1.6-3.5
		c0.8-1.2,1.7-2.2,2.7-3.1c1-0.9,2.1-1.6,3.3-2.2c1-0.5,2-1,3.1-1.5c3.9-1.4,8.8-2.1,14.6-2c-0.1-4.1-2.5-6.3-7-6.7
		c-4.6,0-9.1,1-13.3,3.1l-2.5-8.6l4.9-2C146.9,50.6,151.2,50,156.1,50.2 M274.9,52.5c3.7,2.7,5.9,6.5,6.6,11.3
		c0.2,1.5,0.3,2.9,0.3,4.4c0,0.1,0,0.1,0,0.2v27.6L268.5,96V69.8c0.1-4.5-1.3-7.3-4.3-8.4c-0.1,0-0.1,0-0.2,0
		c-0.6-0.1-1.2-0.2-1.8-0.2c-0.4,0-0.7,0-1.1,0c-1.7,0.3-3,1.2-4.1,2.5c-0.2,0.3-0.4,0.5-0.6,0.8c-0.1,0.2-0.3,0.5-0.4,0.7
		c-0.3,0.6-0.4,1-0.4,1.2v29.5L241.9,96V69c0-1.2-0.1-2.3-0.3-3.1c-0.5-1.6-1.5-2.9-3-3.9c-0.3-0.2-0.5-0.3-0.8-0.4
		c-0.7-0.3-1.5-0.5-2.4-0.5c-2.4,0.2-4.3,1.2-5.5,3.1c-0.3,0.5-0.6,1.1-0.9,1.8c-0.4,0.9-0.6,1.9-0.5,3v26.8h-13.2V51.3h11.4v5.8
		l0.8,0.1c2.6-4,6.1-6.2,10.4-6.8c3.5-0.4,6.7,0.1,9.5,1.5c2.5,1.6,4.2,3.4,5.2,5.7h0.8c2.6-4,6.2-6.4,10.9-7.1
		c4.1-0.5,7.6,0.1,10.5,1.9C274.8,52.4,274.9,52.4,274.9,52.5 M372.7,50.4v12.7c-3.3-0.6-6.1-0.3-8.7,0.8c-2.8,1.7-4.3,4.2-4.7,7.5
		V96h-13.7V51h12v8.3h0.5c1.4-3.7,3.3-6.2,5.9-7.5C367.1,50.1,369.9,49.6,372.7,50.4 M329.1,55.5c0.3,0.3,0.5,0.7,0.8,1
		c1.3,1.7,2.3,3.6,3,5.6c0.7,2.1,1.2,4.2,1.5,6.4c0.3,2.2,0.4,4.4,0.2,6.6c-0.1,0.9-0.2,1.7-0.4,2.6h-28.3c0.1,2,0.9,3.9,2.4,5.7
		c1.6,1.4,3.6,2.3,5.8,2.8c3.6,0.7,7.7,0.6,12.1-0.3c1.5-0.3,2.9-0.8,4.3-1.3l1.6,9.5c-3.3,1.6-7.3,2.5-12,2.7
		c-2.2,0.1-4.4,0.1-6.5-0.1c-2-0.1-3.9-0.5-5.7-1c-0.4-0.1-0.7-0.3-1.1-0.4c-6.7-2.6-11-7.4-13.1-14.6c-1.3-4.6-1.2-9.4,0.2-14.4
		c1.8-6.4,5.7-11.2,11.5-14.3c1.7-0.9,3.5-1.5,5.3-1.8c4.8-0.9,9.3-0.3,13.6,1.8C326.1,52.9,327.8,54.1,329.1,55.5 M322.6,68.5
		c-0.5-5-2.6-8-6.1-9c-1.9-0.4-3.6-0.3-5,0.2c-3.2,1.2-5.2,4.1-5.9,8.8H322.6z M394.2,50.9l8.8,30.6l7.9-30.6h14.4l-11.1,31.7
		c-2.4,8.4-6.3,16.5-11.8,24.3c-4,5.3-9.3,8.3-16.1,9.1l-2.8-11.7c5-0.9,8.7-3.2,11.2-7.1c0.6-0.9,1-1.7,1.1-2.3v-1.7l-17-42.3
		H394.2z M444.3,63.4c0.3,2.6,2.5,4.2,6.3,4.9c7.5,2.1,11.7,6.1,12.7,12.2c0.6,6.5-1.9,11.2-7.4,14c-4.7,2.1-10.5,2.8-17.4,2
		c-3-0.6-5.8-1.5-8.2-2.7l2.3-9.9c6.7,3,11.6,4,14.8,2.9c1.9-0.7,2.9-1.7,3-3.1c-0.1-2.2-1.1-3.6-3-4.2c0,0-0.1,0-0.1,0
		c-6.5-1.7-11.3-4.6-14.1-8.4c-2-3.1-2.4-6.5-1.3-10c2.4-7,7.7-10.6,16.1-10.8c4.9-0.1,9.4,0.7,13.5,2.5l-2.4,9.6
		c-2-1.3-4.5-2.1-7.6-2.5c-3-0.3-5.1,0.2-6.4,1.4C444.6,61.8,444.4,62.5,444.3,63.4"/>
	<path class="st0" d="M351.4,108.4l3.5,8.8c0.1,0.2,0.1,0.3,0.1,0.4c0,0.1,0,0.2-0.1,0.4c-0.5,1.1-1.1,1.9-1.6,2.4
		c-0.6,0.6-1.2,0.9-1.7,1.1l0.3,0.8c0.2-0.1,0.9-0.4,1.7-1c1.2-1.1,2.1-2.8,3.2-5.8l2.8-7.1h-1l-2.3,6.1c-0.3,0.8-0.5,1.5-0.7,2.1h0
		c-0.2-0.6-0.4-1.4-0.7-2l-2.5-6.2H351.4z M342.2,117.9h0.9v-5.2c0-0.3,0-0.6,0.1-0.9c0.3-1.5,1.2-2.6,2.5-2.6c0.2,0,0.3,0,0.5,0
		v-0.9c-0.1,0-0.3,0-0.4,0c-1.3,0-2.3,0.9-2.7,2.1h0l0-1.9h-0.9c0,0.9,0.1,1.9,0.1,2.8V117.9z M328.7,112.3c0.2-1.5,1.1-3.3,3.2-3.3
		c2.3,0,2.8,2,2.8,3.3H328.7z M335.6,113c0-0.2,0-0.3,0-0.6c0-1.4-0.6-4.3-3.7-4.3c-2.4,0-4.3,2-4.3,5.1c0,2.8,1.7,4.8,4.4,4.8
		c1.7,0,2.6-0.4,3-0.6l-0.2-0.7c-0.5,0.3-1.2,0.5-2.6,0.5c-2,0-3.6-1.2-3.6-4.2H335.6z M314.3,108.4l3.7,9.5h0.8l3.8-9.5h-1
		l-2.2,5.9c-0.4,0.9-0.7,1.7-1,2.5h0c-0.3-0.8-0.6-1.6-0.9-2.5l-2.2-5.9H314.3z M307.8,104.9c-0.4,0-0.8,0.4-0.8,0.8
		s0.3,0.8,0.7,0.8c0.5,0,0.8-0.4,0.8-0.8C308.5,105.2,308.2,104.9,307.8,104.9 M308.2,108.4h-0.9v9.5h0.9V108.4z M299,117.9h0.9v-14
		H299V117.9z M285.5,112.3c0.2-1.5,1.1-3.3,3.2-3.3c2.3,0,2.8,2,2.8,3.3H285.5z M292.4,113c0-0.2,0-0.3,0-0.6c0-1.4-0.6-4.3-3.7-4.3
		c-2.4,0-4.3,2-4.3,5.1c0,2.8,1.7,4.8,4.4,4.8c1.7,0,2.6-0.4,3-0.6l-0.2-0.7c-0.5,0.3-1.2,0.5-2.6,0.5c-2,0-3.6-1.2-3.6-4.2H292.4z
		 M277,114c0,0.3,0,0.5-0.1,0.8c-0.4,1.6-1.7,2.5-3,2.5c-2.2,0-3.3-2-3.3-4.1c0-2.5,1.3-4.3,3.4-4.3c1.5,0,2.6,1.1,3,2.3
		c0.1,0.3,0.1,0.6,0.1,0.9V114z M277,103.9v6h0c-0.4-0.8-1.5-1.7-3.1-1.7c-2.3,0-4.3,2-4.3,5.1c0,2.8,1.8,4.8,4.1,4.8
		c1.8,0,2.9-1,3.4-2h0l0.1,1.8h0.8c0-0.7-0.1-1.5-0.1-2.2v-11.8H277z M248.4,112.3c0.2-1.5,1.1-3.3,3.2-3.3c2.3,0,2.8,2,2.8,3.3
		H248.4z M255.3,113c0-0.2,0-0.3,0-0.6c0-1.4-0.6-4.3-3.7-4.3c-2.4,0-4.3,2-4.3,5.1c0,2.8,1.7,4.8,4.4,4.8c1.7,0,2.6-0.4,3-0.6
		l-0.2-0.7c-0.5,0.3-1.2,0.5-2.6,0.5c-2,0-3.6-1.2-3.6-4.2H255.3z M238.5,117.9h0.9v-5.2c0-0.3,0-0.6,0.1-0.9
		c0.3-1.5,1.2-2.6,2.5-2.6c0.2,0,0.3,0,0.5,0v-0.9c-0.1,0-0.3,0-0.4,0c-1.3,0-2.3,0.9-2.7,2.1h0l0-1.9h-0.9c0,0.9,0.1,1.9,0.1,2.8
		V117.9z M230.3,114.8c0,0.2,0,0.4-0.1,0.6c-0.3,0.9-1.2,1.9-2.8,1.9c-1,0-1.9-0.6-1.9-2c0-2.3,2.7-2.6,4.8-2.5V114.8z M231.4,117.9
		c-0.1-0.7-0.1-1.5-0.1-2.2v-3.7c0-1.7-0.5-3.7-3.3-3.7c-0.8,0-1.9,0.2-2.8,0.8l0.3,0.7c0.7-0.5,1.5-0.7,2.4-0.7
		c2.2,0,2.4,1.9,2.4,2.8v0.2c-3.8,0-5.8,1.3-5.8,3.5c0,1.3,0.9,2.6,2.8,2.6c1.5,0,2.6-0.8,3-1.6h0.1l0.1,1.4H231.4z M218.7,116.7
		c-0.5,0.2-1.2,0.5-2.4,0.5c-2.2,0-3.7-1.6-3.7-4.1c0-2.2,1.3-4.2,3.8-4.2c1,0,1.8,0.3,2.2,0.6l0.3-0.8c-0.4-0.3-1.3-0.6-2.5-0.6
		c-2.8,0-4.9,2.1-4.9,5c0,2.9,1.8,4.8,4.6,4.8c1.4,0,2.3-0.4,2.8-0.6L218.7,116.7z M197.7,117.9h0.9v-5.8c0-0.4,0-0.7,0.1-0.9
		c0.4-1.2,1.5-2.2,2.9-2.2c1.9,0,2.6,1.6,2.6,3.3v5.6h0.9v-5.7c0-3.5-2.4-4-3.3-4c-0.7,0-1.4,0.2-1.9,0.5c-0.6,0.3-1,0.8-1.3,1.4h0
		v-6.2h-0.9V117.9z M187.8,105.9v2.4h-1.6v0.7h1.6v6c0,1,0.2,1.8,0.6,2.2c0.4,0.5,0.9,0.7,1.6,0.7c0.6,0,1-0.1,1.3-0.2l-0.1-0.7
		c-0.2,0.1-0.6,0.2-1.1,0.2c-1,0-1.4-0.8-1.4-2v-6.2h2.7v-0.7h-2.7v-2.7L187.8,105.9z M179.2,117.9h0.9v-14h-0.9V117.9z M171,114.8
		c0,0.2,0,0.4-0.1,0.6c-0.3,0.9-1.2,1.9-2.8,1.9c-1,0-1.9-0.6-1.9-2c0-2.3,2.7-2.6,4.8-2.5V114.8z M172.1,117.9
		c-0.1-0.7-0.1-1.5-0.1-2.2v-3.7c0-1.7-0.5-3.7-3.3-3.7c-0.8,0-1.9,0.2-2.8,0.8l0.3,0.7c0.7-0.5,1.5-0.7,2.4-0.7
		c2.2,0,2.4,1.9,2.4,2.8v0.2c-3.8,0-5.8,1.3-5.8,3.5c0,1.3,0.9,2.6,2.8,2.6c1.5,0,2.6-0.8,3-1.6h0.1l0.1,1.4H172.1z M152.6,112.3
		c0.2-1.5,1.1-3.3,3.2-3.3c2.3,0,2.8,2,2.8,3.3H152.6z M159.5,113c0-0.2,0-0.3,0-0.6c0-1.4-0.6-4.3-3.7-4.3c-2.4,0-4.3,2-4.3,5.1
		c0,2.8,1.7,4.8,4.4,4.8c1.7,0,2.6-0.4,3-0.6l-0.2-0.7c-0.5,0.3-1.2,0.5-2.6,0.5c-2,0-3.6-1.2-3.6-4.2H159.5z M135.8,104.6v13.3h0.9
		v-6.6h7.3v6.6h0.9v-13.3h-0.9v5.8h-7.3v-5.8H135.8z"/>
	<path class="st0" d="M274.3,124v2.4h-1.6v0.7h1.6v6c0,1,0.2,1.8,0.6,2.2c0.4,0.5,0.9,0.7,1.6,0.7c0.6,0,1-0.1,1.3-0.2l-0.1-0.7
		c-0.2,0.1-0.6,0.2-1.1,0.2c-1,0-1.4-0.8-1.4-2v-6.2h2.7v-0.7h-2.7v-2.7L274.3,124z M259.3,135.9h0.9V130c0-0.3,0.1-0.6,0.1-0.8
		c0.4-1.2,1.5-2.2,2.8-2.2c2,0,2.6,1.6,2.6,3.3v5.6h0.9v-5.7c0-3.6-2.4-4-3.3-4c-1.6,0-2.7,0.9-3.3,1.9h0l-0.1-1.7h-0.9
		c0,0.7,0.1,1.4,0.1,2.3V135.9z M245.8,130.3c0.2-1.5,1.1-3.3,3.2-3.3c2.3,0,2.8,2,2.8,3.3H245.8z M252.7,131.1c0-0.2,0-0.3,0-0.6
		c0-1.4-0.6-4.3-3.7-4.3c-2.4,0-4.3,2-4.3,5.1c0,2.8,1.7,4.8,4.4,4.8c1.7,0,2.6-0.4,3-0.6l-0.2-0.7c-0.5,0.3-1.2,0.5-2.6,0.5
		c-2,0-3.6-1.2-3.6-4.2H252.7z M225.3,135.9h0.9v-5.8c0-0.3,0.1-0.7,0.2-0.9c0.4-1.1,1.3-2.1,2.6-2.1c1.5,0,2.3,1.2,2.3,3v5.9h0.9
		v-6.1c0-0.3,0.1-0.7,0.2-0.9c0.4-1,1.3-1.9,2.5-1.9c1.6,0,2.5,1.3,2.5,3.4v5.5h0.9v-5.6c0-3.6-2.1-4.1-3.1-4.1
		c-1,0-1.7,0.3-2.3,0.8c-0.4,0.3-0.7,0.7-1,1.3h0c-0.4-1.2-1.4-2.1-2.7-2.1c-1.6,0-2.5,0.8-3.1,1.9h0l-0.1-1.7h-0.9
		c0,0.7,0.1,1.4,0.1,2.3V135.9z M211.8,130.3c0.2-1.5,1.1-3.3,3.2-3.3c2.3,0,2.8,2,2.8,3.3H211.8z M218.7,131.1c0-0.2,0-0.3,0-0.6
		c0-1.4-0.6-4.3-3.7-4.3c-2.4,0-4.3,2-4.3,5.1c0,2.8,1.7,4.8,4.4,4.8c1.7,0,2.6-0.4,3-0.6l-0.2-0.7c-0.5,0.3-1.2,0.5-2.6,0.5
		c-2,0-3.6-1.2-3.6-4.2H218.7z M203.3,132c0,0.3-0.1,0.7-0.2,1c-0.5,1.4-1.7,2.1-2.9,2.1c-2.2,0-3.4-1.8-3.4-4
		c0-2.5,1.4-4.2,3.4-4.2c1.5,0,2.5,1,2.9,2.2c0.1,0.3,0.1,0.6,0.1,0.9V132z M203.4,126.4l0,1.6h0c-0.4-0.8-1.3-1.8-3.2-1.8
		c-2.1,0-4.3,1.7-4.3,5c0,2.6,1.7,4.7,4.1,4.7c1.7,0,2.8-0.9,3.3-1.8h0v1.3c0,2.8-1.4,3.8-3.4,3.8c-1.2,0-2.1-0.4-2.8-0.8l-0.3,0.8
		c0.7,0.5,1.9,0.8,3,0.8c1.1,0,2.3-0.3,3.2-1.1c0.8-0.7,1.3-2,1.3-4.4v-5.6c0-1,0-1.7,0.1-2.4H203.4z M188.5,132.9
		c0,0.2,0,0.4-0.1,0.6c-0.3,0.9-1.2,1.9-2.8,1.9c-1,0-1.9-0.6-1.9-2c0-2.3,2.7-2.6,4.8-2.5V132.9z M189.6,135.9
		c-0.1-0.7-0.1-1.5-0.1-2.2V130c0-1.7-0.5-3.7-3.3-3.7c-0.8,0-1.9,0.2-2.8,0.8l0.3,0.7c0.7-0.5,1.5-0.7,2.4-0.7
		c2.2,0,2.4,1.9,2.4,2.8v0.2c-3.8,0-5.8,1.3-5.8,3.5c0,1.3,0.9,2.6,2.8,2.6c1.5,0,2.6-0.8,3-1.6h0.1l0.1,1.4H189.6z M168.9,135.9
		h0.9V130c0-0.3,0.1-0.6,0.1-0.8c0.4-1.2,1.5-2.2,2.8-2.2c2,0,2.6,1.6,2.6,3.3v5.6h0.9v-5.7c0-3.6-2.4-4-3.3-4
		c-1.6,0-2.7,0.9-3.3,1.9h0l-0.1-1.7h-0.9c0,0.7,0.1,1.4,0.1,2.3V135.9z M160.7,132.9c0,0.2,0,0.4-0.1,0.6c-0.3,0.9-1.2,1.9-2.8,1.9
		c-1,0-1.9-0.6-1.9-2c0-2.3,2.7-2.6,4.8-2.5V132.9z M161.8,135.9c-0.1-0.7-0.1-1.5-0.1-2.2V130c0-1.7-0.5-3.7-3.3-3.7
		c-0.8,0-1.9,0.2-2.8,0.8l0.3,0.7c0.7-0.5,1.5-0.7,2.4-0.7c2.2,0,2.4,1.9,2.4,2.8v0.2c-3.8,0-5.8,1.3-5.8,3.5c0,1.3,0.9,2.6,2.8,2.6
		c1.5,0,2.6-0.8,3-1.6h0.1l0.1,1.4H161.8z M135.5,135.9h0.9v-5.8c0-0.3,0.1-0.7,0.2-0.9c0.4-1.1,1.3-2.1,2.6-2.1
		c1.5,0,2.3,1.2,2.3,3v5.9h0.9v-6.1c0-0.3,0.1-0.7,0.2-0.9c0.4-1,1.3-1.9,2.5-1.9c1.6,0,2.5,1.3,2.5,3.4v5.5h0.9v-5.6
		c0-3.6-2.1-4.1-3.1-4.1c-1,0-1.7,0.3-2.3,0.8c-0.4,0.3-0.7,0.7-1,1.3h0c-0.4-1.2-1.4-2.1-2.7-2.1c-1.6,0-2.5,0.8-3.1,1.9h0
		l-0.1-1.7h-0.9c0,0.7,0.1,1.4,0.1,2.3V135.9z"/>
</g>
</svg>
