<?xml version="1.0" encoding="utf-8"?>
<!-- Generator: Adobe Illustrator 21.1.0, SVG Export Plug-In . SVG Version: 6.00 Build 0)  -->
<svg version="1.1" id="Calque_1" xmlns="http://www.w3.org/2000/svg" xmlns:xlink="http://www.w3.org/1999/xlink" x="0px" y="0px"
	 viewBox="0 0 430.8 151.6" style="enable-background:new 0 0 430.8 151.6;" xml:space="preserve">
<style type="text/css">
	.st0{fill:#FFFFFF;}
</style>
<g>
	<path class="st0" d="M73.2,71c0.4-3.8,2.8-9.1,8.7-9.1c6.5,0,7.9,5.7,7.9,9.1H73.2z M102.4,80.6c0.2-1,0.5-3.1,0.5-5.5
		c0-11.2-5.5-22.5-20.1-22.5c-15.7,0-22.8,12.7-22.8,24.1c0,14.1,8.8,23,24.1,23c6.1,0,11.7-0.9,16.3-2.8l-1.8-9.5
		c-3.8,1.2-7.7,1.8-12.5,1.8c-6.6,0-12.3-2.8-12.7-8.6H102.4z M19.2,72.8c0-0.9,0.1-1.8,0.3-2.6c0.9-4.1,4.4-6.9,8.2-6.9
		c6.6,0,9.7,5.5,9.7,12.6c0,8.1-3.7,12.7-9.7,12.7c-4.1,0-7.3-2.9-8.2-6.7c-0.2-0.7-0.3-1.6-0.3-2.5V72.8z M16.7,98.7l0.6-6.3h0.2
		c3.2,5.4,8.3,7.3,13.6,7.3c10.3,0,20.7-8.1,20.7-24.4c0.1-13.9-7.9-22.8-18.7-22.8c-6.3,0-11,2.5-13.7,6.4h-0.2V33.1h-14v52.1
		c0,5.1-0.2,10.5-0.4,13.5H16.7z"/>
</g>
<rect x="116.1" y="5.6" class="st0" width="4.3" height="141.7"/>
<g>
	<path class="st0" d="M392.7,96.8c3.4,1.9,8.7,3.1,14.6,3.1c12.9,0,19.6-6.2,19.6-14.6c-0.1-6.7-3.7-11-12.3-13.9
		c-5.5-1.9-7.3-3-7.3-5.2c0-2.3,1.9-3.7,5.4-3.7c3.9,0,7.8,1.5,9.8,2.6l2.5-9.7c-2.8-1.4-7.5-2.6-12.7-2.6
		c-11.2,0-18.4,6.4-18.4,14.8c-0.1,5.4,3.5,10.4,12.8,13.6c5.3,1.8,6.7,2.9,6.7,5.2c0,2.3-1.8,3.8-6,3.8c-4.2,0-9.5-1.8-12.1-3.4
		L392.7,96.8z M341.5,53.9L358,95.2c0.6,1.1,0.6,1.8,0.6,2.3c0,0.6-0.3,1.4-0.7,2c-1.4,2.3-3.7,4.5-5.8,5.6
		c-2.1,1.3-4.3,2.1-6.1,2.4l3,11.9c3.5-0.5,8.7-1.9,13.6-6.2c5.1-4.5,9.4-11.7,15.9-29.7L389,53.9h-15.1l-5.5,22.2
		c-0.6,2.6-1.4,6-2,8.4h-0.3c-0.6-2.4-1.5-5.7-2.2-8.4l-6.7-22.2H341.5z M308,99.1h14V76.1c0-1.1,0.1-2.2,0.3-3.1
		c0.9-4.3,4.4-7.1,9.6-7.1c1.6,0,2.8,0.2,3.8,0.4V53.1c-1-0.2-1.7-0.2-3-0.2c-4.3,0-9.9,2.8-12.2,9.3h-0.4l-0.5-8.3h-12.1
		c0.2,3.9,0.4,8.2,0.4,14.9V99.1z M281.4,82.6c0,0.8-0.1,1.7-0.3,2.4c-0.9,2.9-3.8,5.2-7.3,5.2c-3.1,0-5.5-1.8-5.5-5.4
		c0-5.5,5.7-7.2,13.1-7.1V82.6z M295.7,99.1c-0.5-2.5-0.6-6.6-0.6-11V72.4c0-10.6-4.8-19.5-19.9-19.5c-8.2,0-14.4,2.2-17.5,4l2.6,9
		c3-1.8,7.9-3.4,12.5-3.4c6.9,0,8.2,3.4,8.2,5.8v0.6c-16-0.1-26.5,5.5-26.5,17.3c0,7.2,5.4,13.9,14.6,13.9c5.4,0,10-1.9,12.9-5.5
		h0.3l0.8,4.5H295.7z M217.5,71.3c0.4-3.8,2.8-9.1,8.7-9.1c6.5,0,7.9,5.7,7.9,9.1H217.5z M246.6,81c0.2-1,0.5-3.1,0.5-5.5
		c0-11.2-5.5-22.5-20.1-22.5c-15.7,0-22.8,12.7-22.8,24.1c0,14.1,8.8,23,24.1,23c6.1,0,11.7-0.9,16.3-2.8l-1.8-9.5
		c-3.8,1.2-7.7,1.8-12.5,1.8c-6.6,0-12.3-2.8-12.7-8.6H246.6z M179.5,99.1h14V33.5h-14V99.1z M168.2,87.6c-2.1,0.8-4.7,1.4-8,1.4
		c-6.8,0-12.4-4.3-12.4-12.7c-0.1-7.4,4.7-12.7,12.1-12.7c3.7,0,6.2,0.6,7.9,1.4l2.2-10.4c-3-1.1-7-1.8-10.7-1.8
		c-16.8,0-25.9,10.8-25.9,24c0,14.2,9.3,23.1,23.9,23.1c5.4,0,10.1-0.9,12.6-2L168.2,87.6z"/>
</g>
</svg>
