<?xml version="1.0" encoding="utf-8"?>
<!-- Generator: Adobe Illustrator 21.1.0, SVG Export Plug-In . SVG Version: 6.00 Build 0)  -->
<svg version="1.1" id="Calque_1" xmlns="http://www.w3.org/2000/svg" xmlns:xlink="http://www.w3.org/1999/xlink" x="0px" y="0px"
	 viewBox="0 0 309.8 154.1" style="enable-background:new 0 0 309.8 154.1;" xml:space="preserve">
<style type="text/css">
	.st0{fill:#939598;}
	.st1{fill:#6D7175;}
	.st2{fill:#D9C8A1;}
</style>
<rect x="119.8" y="4.2" class="st0" width="4.5" height="146.1"/>
<rect x="119.8" y="4.2" class="st1" width="4.5" height="146.1"/>
<g>
	<path class="st2" d="M270.8,98.2c3.5,1.9,9,3.3,15,3.3c13.3,0,20.2-6.5,20.2-15.1c-0.1-6.9-3.8-11.3-12.7-14.4
		c-5.7-2-7.5-3.1-7.5-5.3c0-2.4,2-3.8,5.5-3.8c4,0,8,1.5,10.1,2.7l2.6-10c-2.9-1.4-7.7-2.7-13.1-2.7c-11.5,0-18.9,6.6-18.9,15.3
		c-0.1,5.4,3.6,10.7,13.2,13.9c5.4,1.8,6.9,3,6.9,5.3c0,2.4-1.8,3.9-6.2,3.9c-4.3,0-9.8-1.9-12.5-3.5L270.8,98.2z M218,54l17,42.6
		c0.6,1.1,0.7,1.9,0.7,2.4c0,0.7-0.3,1.4-0.8,2.1c-1.4,2.4-3.8,4.7-6,5.8c-2.2,1.3-4.5,2.2-6.3,2.5l3,12.3c3.6-0.5,9-2,14-6.4
		c5.2-4.7,9.7-12.1,16.4-30.6L267,54h-15.5l-5.7,22.9c-0.7,2.7-1.4,6.2-2.1,8.7h-0.3c-0.6-2.5-1.5-5.9-2.3-8.7l-7-22.9H218z
		 M195.3,79.8c0,1.2-0.1,2.3-0.4,3.3c-0.9,4.1-4.2,7-8.4,7c-6,0-9.9-5-9.9-12.9c0-7.3,3.4-13.2,10-13.2c4.5,0,7.6,3.2,8.5,7.1
		c0.1,0.8,0.2,1.8,0.2,2.6V79.8z M195.3,32.9v25.2h-0.2c-2.1-3.2-6.6-5.2-12.3-5.2c-11.1,0-20.9,9-20.9,24.8
		c0,14.5,8.9,23.9,19.9,23.9c6,0,11.6-2.7,14.6-7.9h0.2l0.7,6.9h12.9c-0.2-3.1-0.4-8.7-0.4-13.9V32.9H195.3z M143.8,33.7
		c-4.7,0-7.7,3.1-7.6,7.3c-0.1,4,3,7.2,7.5,7.2c4.8,0,7.8-3.2,7.8-7.2C151.5,36.8,148.5,33.7,143.8,33.7 M151.1,54h-14.5v46.6h14.5
		V54z"/>
	<path class="st1" d="M208.9,119.2c0,0.3,0,0.5-0.1,0.8c-0.4,1.6-1.7,2.5-3.1,2.5c-2.3,0-3.4-2-3.4-4.2c0-2.5,1.3-4.4,3.5-4.4
		c1.6,0,2.7,1.1,3.1,2.4c0.1,0.3,0.1,0.6,0.1,0.9V119.2z M208.9,108.7v6.2h0c-0.4-0.8-1.5-1.7-3.2-1.7c-2.4,0-4.4,2-4.4,5.3
		c0,2.9,1.8,4.9,4.2,4.9c1.8,0,3-1,3.5-2.1h0l0.1,1.9h0.9c0-0.7-0.1-1.5-0.1-2.3v-12.2H208.9z M189.9,117.4c0.2-1.5,1.1-3.4,3.3-3.4
		c2.4,0,2.9,2.1,2.9,3.4H189.9z M197.1,118.1c0-0.2,0-0.3,0-0.6c0-1.4-0.6-4.4-3.8-4.4c-2.5,0-4.4,2-4.4,5.3c0,2.9,1.7,4.9,4.6,4.9
		c1.7,0,2.7-0.4,3.1-0.6l-0.2-0.8c-0.5,0.3-1.3,0.6-2.7,0.6c-2,0-3.7-1.2-3.7-4.4H197.1z M181.5,110.8v2.5h-1.6v0.8h1.6v6.2
		c0,1,0.2,1.8,0.6,2.3c0.4,0.5,1,0.7,1.7,0.7c0.6,0,1-0.1,1.4-0.2l-0.1-0.8c-0.2,0.1-0.6,0.2-1.1,0.2c-1,0-1.4-0.8-1.4-2v-6.3h2.8
		v-0.8h-2.8v-2.8L181.5,110.8z M170.4,122.7c0.7,0.4,1.5,0.7,2.5,0.7c2,0,3.3-1.1,3.3-2.8c0-1.5-0.9-2.3-2.5-2.9c-1.3-0.5-2-1-2-2
		c0-0.9,0.7-1.7,1.9-1.7c1,0,1.6,0.3,1.9,0.6l0.4-0.8c-0.5-0.3-1.3-0.6-2.2-0.6c-1.9,0-3,1.2-3,2.6c0,1.2,0.9,2.1,2.5,2.7
		c1.4,0.6,2.1,1.1,2.1,2.2c0,1-0.7,1.9-2.3,1.9c-0.9,0-1.7-0.3-2.2-0.7L170.4,122.7z M165.4,113.4h-1v6.1c0,0.4-0.1,0.8-0.2,1.1
		c-0.4,1-1.4,2-2.9,2c-1.9,0-2.6-1.5-2.6-3.6v-5.5h-1v5.7c0,3.7,2.1,4.3,3.3,4.3c1.7,0,2.9-1.1,3.4-2h0l0.1,1.7h0.9
		c0-0.8-0.1-1.5-0.1-2.4V113.4z M149.4,123.1h1v-5.4c0-0.3,0-0.7,0.1-0.9c0.3-1.6,1.2-2.7,2.6-2.7c0.2,0,0.3,0,0.5,0v-0.9
		c-0.1,0-0.3,0-0.4,0c-1.3,0-2.4,1-2.8,2.2h0l0-2h-0.9c0,0.9,0.1,2,0.1,2.9V123.1z M140.9,123.1h1v-12.9h4.5v-0.8h-9.9v0.8h4.5
		V123.1z"/>
	<path class="st1" d="M239.1,131.8l3.6,9c0.1,0.2,0.1,0.3,0.1,0.4c0,0.1,0,0.2-0.1,0.4c-0.5,1.2-1.1,2-1.6,2.4
		c-0.6,0.6-1.2,0.9-1.7,1.1l0.3,0.8c0.2-0.1,0.9-0.4,1.7-1c1.3-1.1,2.1-2.9,3.3-6l2.9-7.3h-1l-2.4,6.3c-0.3,0.8-0.5,1.5-0.8,2.2h0
		c-0.2-0.6-0.4-1.4-0.7-2.1l-2.6-6.4H239.1z M232,129.3v2.5h-1.6v0.8h1.6v6.2c0,1,0.2,1.8,0.6,2.3c0.4,0.5,1,0.7,1.7,0.7
		c0.6,0,1-0.1,1.4-0.2l-0.1-0.8c-0.2,0.1-0.6,0.2-1.1,0.2c-1,0-1.4-0.8-1.4-2v-6.3h2.8v-0.8H233V129L232,129.3z M222.8,141.6h1v-5.4
		c0-0.3,0-0.6,0.1-0.9c0.3-1.6,1.2-2.7,2.6-2.7c0.2,0,0.3,0,0.5,0v-0.9c-0.1,0-0.3,0-0.4,0c-1.3,0-2.4,1-2.8,2.2h0l0-2h-0.9
		c0,0.9,0.1,2,0.1,2.9V141.6z M216.3,138.5c0,0.2,0,0.4-0.1,0.6c-0.3,1-1.3,2-2.9,2c-1,0-2-0.6-2-2c0-2.3,2.8-2.7,4.9-2.6V138.5z
		 M217.4,141.6c-0.1-0.8-0.1-1.5-0.1-2.3v-3.8c0-1.7-0.5-3.9-3.4-3.9c-0.9,0-2,0.2-2.8,0.8l0.3,0.7c0.7-0.5,1.6-0.7,2.4-0.7
		c2.3,0,2.5,1.9,2.5,2.9v0.2c-4,0-6,1.3-6,3.6c0,1.3,0.9,2.7,2.9,2.7c1.6,0,2.6-0.9,3.1-1.6h0.1l0.1,1.4H217.4z M198.5,135.9
		c0-0.3,0.1-0.6,0.1-0.8c0.4-1.6,1.8-2.6,3.2-2.6c2.2,0,3.4,2,3.4,4.2c0,2.6-1.3,4.4-3.5,4.4c-1.5,0-2.8-1-3.2-2.5
		c0-0.2-0.1-0.5-0.1-0.8V135.9z M197.6,145.6h1V140h0c0.7,1.2,1.9,1.8,3.3,1.8c2.4,0,4.4-1.8,4.4-5.3c0-2.9-1.7-4.9-4.2-4.9
		c-1.7,0-2.9,0.8-3.6,2.1h0l-0.1-1.9h-0.9c0,0.9,0.1,1.9,0.1,3.1V145.6z M184.2,137.7c0,0.3,0,0.6-0.1,0.8c-0.4,1.6-1.7,2.5-3.1,2.5
		c-2.3,0-3.4-2-3.4-4.2c0-2.5,1.3-4.4,3.5-4.4c1.6,0,2.7,1.1,3.1,2.4c0.1,0.3,0.1,0.6,0.1,0.9V137.7z M184.2,127.2v6.2h0
		c-0.4-0.8-1.5-1.7-3.2-1.7c-2.4,0-4.4,2-4.4,5.3c0,2.9,1.8,4.9,4.2,4.9c1.8,0,3-1,3.5-2.1h0l0.1,1.9h0.9c0-0.7-0.1-1.5-0.1-2.3
		v-12.2H184.2z M169.2,141.6h1v-5.4c0-0.3,0-0.6,0.1-0.9c0.3-1.6,1.2-2.7,2.6-2.7c0.2,0,0.3,0,0.5,0v-0.9c-0.1,0-0.3,0-0.4,0
		c-1.3,0-2.4,1-2.8,2.2h0l0-2h-0.9c0,0.9,0.1,2,0.1,2.9V141.6z M163.1,128.2c-0.4,0-0.8,0.4-0.8,0.9c0,0.4,0.3,0.8,0.8,0.8
		c0.5,0,0.8-0.4,0.8-0.8C163.9,128.6,163.6,128.2,163.1,128.2 M163.6,131.8h-1v9.8h1V131.8z M149.3,141.6h1v-6c0-0.4,0-0.7,0.1-1
		c0.4-1.2,1.6-2.2,2.9-2.2c2,0,2.7,1.6,2.7,3.4v5.8h1v-5.9c0-3.6-2.5-4.1-3.4-4.1c-0.8,0-1.4,0.2-2,0.5c-0.6,0.3-1.1,0.9-1.3,1.4h0
		v-6.4h-1V141.6z M141.1,129.3v2.5h-1.6v0.8h1.6v6.2c0,1,0.2,1.8,0.6,2.3c0.4,0.5,1,0.7,1.7,0.7c0.6,0,1-0.1,1.4-0.2l-0.1-0.8
		c-0.2,0.1-0.6,0.2-1.1,0.2c-1,0-1.4-0.8-1.4-2v-6.3h2.8v-0.8H142V129L141.1,129.3z"/>
	<path class="st1" d="M74.8,70.8c0.4-3.9,2.9-9.5,9-9.5c6.7,0,8.3,6,8.3,9.5H74.8z M105.1,80.8c0.2-1.1,0.5-3.3,0.5-5.8
		c0-11.6-5.8-23.4-20.9-23.4C68.4,51.6,61,64.8,61,76.7c0,14.7,9.1,23.9,25.1,23.9c6.3,0,12.2-1,17-2.9l-1.9-9.9
		c-3.9,1.2-8,1.9-13,1.9c-6.8,0-12.8-2.9-13.2-8.9H105.1z M18.6,72.7c0-1,0.1-1.8,0.3-2.7c1-4.2,4.6-7.2,8.5-7.2
		c6.8,0,10.1,5.8,10.1,13.1c0,8.4-3.8,13.2-10.1,13.2c-4.2,0-7.6-3-8.5-6.9c-0.2-0.8-0.3-1.6-0.3-2.6V72.7z M16,99.6l0.6-6.5h0.2
		c3.4,5.6,8.6,7.6,14.1,7.6c10.8,0,21.5-8.4,21.5-25.3c0.1-14.4-8.2-23.7-19.4-23.7c-6.5,0-11.4,2.6-14.2,6.6h-0.2V31.5H4v54.1
		c0,5.3-0.2,10.9-0.4,14H16z"/>
</g>
</svg>
