<?xml version="1.0" encoding="utf-8"?>
<!-- Generator: Adobe Illustrator 21.1.0, SVG Export Plug-In . SVG Version: 6.00 Build 0)  -->
<svg version="1.1" id="Calque_1" xmlns="http://www.w3.org/2000/svg" xmlns:xlink="http://www.w3.org/1999/xlink" x="0px" y="0px"
	 viewBox="0 0 281.1 146.3" style="enable-background:new 0 0 281.1 146.3;" xml:space="preserve">
<style type="text/css">
	.st0{fill:#6E7175;}
	.st1{fill:#4E5256;}
</style>
<g>
	<path class="st0" d="M73.6,68.2c0.4-3.8,2.8-9.1,8.7-9.1c6.5,0,7.9,5.7,7.9,9.1H73.6z M102.8,77.8c0.2-1,0.5-3.1,0.5-5.5
		c0-11.2-5.5-22.5-20.1-22.5c-15.7,0-22.8,12.7-22.8,24.1c0,14.1,8.8,23,24.1,23c6.1,0,11.7-0.9,16.3-2.8l-1.8-9.5
		c-3.8,1.2-7.7,1.8-12.5,1.8c-6.6,0-12.3-2.8-12.7-8.6H102.8z M19.6,70c0-0.9,0.1-1.8,0.3-2.6c0.9-4.1,4.4-6.9,8.2-6.9
		c6.6,0,9.7,5.5,9.7,12.6c0,8.1-3.7,12.7-9.7,12.7c-4.1,0-7.3-2.9-8.2-6.7c-0.2-0.7-0.3-1.6-0.3-2.5V70z M17.1,95.9l0.6-6.3h0.2
		c3.2,5.4,8.3,7.3,13.6,7.3c10.3,0,20.7-8.1,20.7-24.4c0.1-13.9-7.9-22.8-18.7-22.8c-6.3,0-11,2.5-13.7,6.4h-0.2V30.3h-14v52.1
		c0,5.1-0.2,10.5-0.4,13.5H17.1z"/>
</g>
<rect x="116.4" y="2.9" class="st0" width="4.3" height="141.7"/>
<g>
	<path class="st1" d="M243.2,93.2c3.4,1.9,8.7,3.1,14.6,3.1c12.9,0,19.6-6.2,19.6-14.6c-0.1-6.7-3.7-11-12.3-13.9
		c-5.5-1.9-7.3-3-7.3-5.2c0-2.3,1.9-3.7,5.4-3.7c3.9,0,7.8,1.5,9.8,2.6l2.5-9.7c-2.8-1.4-7.5-2.6-12.7-2.6
		c-11.2,0-18.4,6.4-18.4,14.8c-0.1,5.4,3.5,10.4,12.8,13.6c5.3,1.8,6.6,2.9,6.6,5.2s-1.8,3.8-6,3.8c-4.2,0-9.5-1.8-12.1-3.4
		L243.2,93.2z M192,50.3l16.5,41.3c0.6,1.1,0.6,1.8,0.6,2.3c0,0.6-0.3,1.4-0.7,2c-1.4,2.3-3.7,4.5-5.8,5.6c-2.1,1.3-4.3,2.1-6.1,2.4
		l3,11.9c3.5-0.5,8.7-1.9,13.6-6.2c5.1-4.5,9.4-11.7,15.9-29.7l10.5-29.7h-15.1l-5.5,22.2c-0.6,2.6-1.4,6-2,8.4h-0.3
		c-0.6-2.4-1.5-5.7-2.2-8.4l-6.7-22.2H192z M162.8,40.5v9.8h-6v10.3h6v18.5c0,6.4,1.3,10.7,3.9,13.4c2.2,2.3,6,3.9,10.5,3.9
		c4,0,7.3-0.5,9.1-1.2l-0.1-10.6c-1,0.2-2.4,0.4-4.2,0.4c-4.2,0-5.5-2.5-5.5-7.9V60.6h10.1V50.3h-10.1V37.3L162.8,40.5z M140.8,30.6
		c-4.5,0-7.5,3-7.4,7.1c-0.1,3.9,2.9,7,7.3,7c4.6,0,7.6-3.1,7.6-7C148.1,33.6,145.3,30.6,140.8,30.6 M147.8,50.3h-14v45.2h14V50.3z"
		/>
</g>
</svg>
