<?xml version="1.0" encoding="utf-8"?>
<!-- Generator: Adobe Illustrator 21.1.0, SVG Export Plug-In . SVG Version: 6.00 Build 0)  -->
<svg version="1.1" id="Calque_1" xmlns="http://www.w3.org/2000/svg" xmlns:xlink="http://www.w3.org/1999/xlink" x="0px" y="0px"
	 viewBox="0 0 468.6 147.8" style="enable-background:new 0 0 468.6 147.8;" xml:space="preserve">
<style type="text/css">
	.st0{fill:#6E7175;}
	.st1{fill:#BCAD39;}
</style>
<g>
	<path class="st0" d="M99.7,69.1c0.4-3.8,2.8-9.1,8.6-9.1c6.4,0,7.9,5.7,7.9,9.1H99.7z M128.7,78.6c0.2-1,0.5-3.1,0.5-5.5
		c0-11.1-5.5-22.4-20-22.4c-15.6,0-22.6,12.6-22.6,23.9c0,14,8.7,22.8,23.9,22.8c6.1,0,11.6-0.9,16.2-2.8l-1.8-9.4
		c-3.8,1.2-7.6,1.8-12.4,1.8c-6.5,0-12.2-2.8-12.7-8.5H128.7z M46.1,70.9c0-0.9,0.1-1.7,0.3-2.6c0.9-4,4.4-6.9,8.2-6.9
		c6.5,0,9.6,5.5,9.6,12.5c0,8.1-3.7,12.7-9.6,12.7c-4,0-7.2-2.8-8.2-6.6c-0.2-0.7-0.3-1.6-0.3-2.5V70.9z M43.6,96.6l0.5-6.2h0.2
		c3.2,5.3,8.3,7.2,13.5,7.2c10.3,0,20.5-8.1,20.5-24.2c0.1-13.8-7.8-22.6-18.5-22.6c-6.2,0-10.9,2.5-13.6,6.3h-0.2V31.5H32.1v51.7
		c0,5-0.2,10.5-0.4,13.4H43.6z"/>
</g>
<rect x="141.6" y="3.7" class="st0" width="4.3" height="141.7"/>
<g>
	<path class="st1" d="M408.1,95c3.4,1.8,8.6,3.1,14.5,3.1c12.8,0,19.4-6.1,19.4-14.5c-0.1-6.6-3.7-10.9-12.2-13.8
		c-5.5-1.9-7.2-3-7.2-5.1c0-2.3,1.9-3.7,5.3-3.7c3.9,0,7.7,1.5,9.7,2.6l2.5-9.6c-2.7-1.4-7.4-2.6-12.7-2.6
		c-11.1,0-18.2,6.3-18.2,14.7c-0.1,5.3,3.5,10.4,12.7,13.5c5.2,1.7,6.6,2.8,6.6,5.1c0,2.3-1.7,3.8-6,3.8c-4.1,0-9.4-1.8-12-3.4
		L408.1,95z M357.3,52.3l16.4,41c0.6,1.1,0.6,1.8,0.6,2.3c0,0.6-0.3,1.4-0.7,2c-1.4,2.3-3.7,4.5-5.8,5.6c-2.1,1.3-4.3,2.1-6,2.4
		l2.9,11.8c3.5-0.5,8.6-1.9,13.5-6.1c5-4.5,9.4-11.6,15.8-29.4l10.5-29.5h-14.9l-5.5,22c-0.6,2.6-1.4,6-2,8.3h-0.3
		c-0.6-2.4-1.5-5.7-2.2-8.3l-6.7-22H357.3z M335.3,97.2h13.9V32.1h-13.9V97.2z M315.3,32.8c-4.5,0-7.4,3-7.3,7.1
		c-0.1,3.8,2.8,7,7.2,7c4.6,0,7.5-3.1,7.5-7C322.6,35.8,319.8,32.8,315.3,32.8 M322.2,52.3h-13.9v44.8h13.9V52.3z M274.8,42.6v9.7
		h-6v10.3h6v18.3c0,6.3,1.3,10.6,3.8,13.3c2.2,2.3,6,3.9,10.5,3.9c3.9,0,7.2-0.5,9.1-1.2L298,86.4c-1,0.2-2.4,0.4-4.1,0.4
		c-4.2,0-5.5-2.5-5.5-7.9V62.6h10V52.3h-10V39.5L274.8,42.6z M230.1,71.8c0-0.8,0.1-1.7,0.3-2.5c0.9-4.1,4.4-7.1,8.3-7.1
		c6.2,0,9.4,5.4,9.4,12.6c0,7.6-3.6,12.7-9.6,12.7c-4,0-7.2-2.8-8.2-6.6c-0.2-0.8-0.3-1.8-0.3-2.9V71.8z M216.2,117.3h13.9V93h0.2
		c2,2.9,6.2,5.1,11.6,5.1c10,0,20.4-7.7,20.4-24c0-14.3-8.8-22.8-18.6-22.8c-6.5,0-11.6,2.5-14.9,7.2h-0.2l-0.6-6.2h-12.1
		c0.2,4.1,0.4,9.2,0.4,15V117.3z M182.4,61.2c6.3,0,8.9,6.8,8.9,13.5c0,8.1-3.5,13.5-8.9,13.5c-6,0-9.2-5.8-9.2-13.5
		C173.3,68.1,175.7,61.2,182.4,61.2 M182.8,51.3c-14.4,0-23.9,9.3-23.9,23.7c0,14.5,10.1,23.1,23.2,23.1c12,0,23.7-7.5,23.7-23.9
		C205.7,60.8,196.6,51.3,182.8,51.3"/>
</g>
</svg>
