<?xml version="1.0" encoding="utf-8"?>
<!-- Generator: Adobe Illustrator 21.1.0, SVG Export Plug-In . SVG Version: 6.00 Build 0)  -->
<svg version="1.1" id="Calque_1" xmlns="http://www.w3.org/2000/svg" xmlns:xlink="http://www.w3.org/1999/xlink" x="0px" y="0px"
	 viewBox="0 0 468.6 147.8" style="enable-background:new 0 0 468.6 147.8;" xml:space="preserve">
<style type="text/css">
	.st0{fill:#FFFFFF;}
</style>
<g>
	<path class="st0" d="M99.7,69.1c0.4-3.8,2.8-9.1,8.6-9.1c6.4,0,7.9,5.7,7.9,9.1H99.7z M128.7,78.6c0.2-1,0.5-3.1,0.5-5.5
		c0-11.1-5.5-22.4-20-22.4c-15.6,0-22.6,12.6-22.6,23.9c0,14,8.7,22.8,23.9,22.8c6.1,0,11.6-0.9,16.2-2.8l-1.8-9.4
		c-3.8,1.2-7.6,1.8-12.4,1.8c-6.5,0-12.2-2.8-12.7-8.5h28.9V78.6z M46.1,70.9c0-0.9,0.1-1.7,0.3-2.6c0.9-4,4.4-6.9,8.2-6.9
		c6.5,0,9.6,5.5,9.6,12.5c0,8.1-3.7,12.7-9.6,12.7c-4,0-7.2-2.8-8.2-6.6c-0.2-0.7-0.3-1.6-0.3-2.5V70.9z M43.6,96.6l0.5-6.2h0.2
		c3.2,5.3,8.3,7.2,13.5,7.2c10.3,0,20.5-8.1,20.5-24.2c0.1-13.8-7.8-22.6-18.5-22.6c-6.2,0-10.9,2.5-13.6,6.3H46V31.5H32.1v51.7
		c0,5-0.2,10.5-0.4,13.4H43.6z"/>
</g>
<rect x="141.6" y="3.7" class="st0" width="4.3" height="141.7"/>
<g>
	<path class="st0" d="M408.1,95c3.4,1.8,8.6,3.1,14.5,3.1c12.8,0,19.4-6.1,19.4-14.5c-0.1-6.6-3.7-10.9-12.2-13.8
		c-5.5-1.9-7.2-3-7.2-5.1c0-2.3,1.9-3.7,5.3-3.7c3.9,0,7.7,1.5,9.7,2.6l2.5-9.6c-2.7-1.4-7.4-2.6-12.7-2.6
		c-11.1,0-18.2,6.3-18.2,14.7c-0.1,5.3,3.5,10.4,12.7,13.5c5.2,1.7,6.6,2.8,6.6,5.1c0,2.3-1.7,3.8-6,3.8c-4.1,0-9.4-1.8-12-3.4
		L408.1,95z M357.3,52.3l16.4,41c0.6,1.1,0.6,1.8,0.6,2.3c0,0.6-0.3,1.4-0.7,2c-1.4,2.3-3.7,4.5-5.8,5.6c-2.1,1.3-4.3,2.1-6,2.4
		l2.9,11.8c3.5-0.5,8.6-1.9,13.5-6.1c5-4.5,9.4-11.6,15.8-29.4l10.5-29.5h-14.9l-5.5,22c-0.6,2.6-1.4,6-2,8.3h-0.3
		c-0.6-2.4-1.5-5.7-2.2-8.3l-6.7-22h-15.6V52.3z M335.3,97.2h13.9V32.1h-13.9V97.2z M315.3,32.8c-4.5,0-7.4,3-7.3,7.1
		c-0.1,3.8,2.8,7,7.2,7c4.6,0,7.5-3.1,7.5-7C322.6,35.8,319.8,32.8,315.3,32.8 M322.2,52.3h-13.9v44.8h13.9V52.3z M274.8,42.6v9.7
		h-6v10.3h6v18.3c0,6.3,1.3,10.6,3.8,13.3c2.2,2.3,6,3.9,10.5,3.9c3.9,0,7.2-0.5,9.1-1.2L298,86.4c-1,0.2-2.4,0.4-4.1,0.4
		c-4.2,0-5.5-2.5-5.5-7.9V62.6h10V52.3h-10V39.5L274.8,42.6z M230.1,71.8c0-0.8,0.1-1.7,0.3-2.5c0.9-4.1,4.4-7.1,8.3-7.1
		c6.2,0,9.4,5.4,9.4,12.6c0,7.6-3.6,12.7-9.6,12.7c-4,0-7.2-2.8-8.2-6.6c-0.2-0.8-0.3-1.8-0.3-2.9v-6.2H230.1z M216.2,102.8h13.9V93
		h0.2c2,2.9,6.2,5.1,11.6,5.1c10,0,20.4-7.7,20.4-24c0-14.3-8.8-22.8-18.6-22.8c-6.5,0-11.6,2.5-14.9,7.2h-0.2l-0.6-6.2h-12.1
		c0.2,4.1,0.4,9.2,0.4,15L216.2,102.8L216.2,102.8z M182.4,61.2c6.3,0,8.9,6.8,8.9,13.5c0,8.1-3.5,13.5-8.9,13.5
		c-6,0-9.2-5.8-9.2-13.5C173.3,68.1,175.7,61.2,182.4,61.2 M182.8,51.3c-14.4,0-23.9,9.3-23.9,23.7c0,14.5,10.1,23.1,23.2,23.1
		c12,0,23.7-7.5,23.7-23.9C205.7,60.8,196.6,51.3,182.8,51.3"/>
	<path class="st0" d="M343.6,118.2c0.6,0.4,1.5,0.6,2.4,0.6c1.9,0,3.2-1.1,3.2-2.7c0-1.4-0.9-2.2-2.4-2.8c-1.3-0.5-1.9-1-1.9-1.9
		s0.6-1.6,1.8-1.6c0.9,0,1.5,0.3,1.9,0.6l0.4-0.8c-0.5-0.3-1.2-0.6-2.1-0.6c-1.8,0-2.9,1.2-2.9,2.5c0,1.1,0.8,2,2.4,2.6
		c1.4,0.5,2,1.1,2,2.1s-0.7,1.8-2.2,1.8c-0.8,0-1.6-0.3-2.1-0.6L343.6,118.2z M329.4,118.7h0.9v-5.8c0-0.3,0.1-0.6,0.1-0.8
		c0.4-1.2,1.5-2.2,2.8-2.2c1.9,0,2.6,1.5,2.6,3.2v5.6h0.9v-5.6c0-3.5-2.4-4-3.3-4c-1.5,0-2.7,0.9-3.2,1.9l0,0l-0.1-1.7h-0.9
		c0,0.7,0.1,1.4,0.1,2.3v7.1H329.4z M318.2,109.8c2.5,0,3.4,2.4,3.4,4.1c0,2.4-1.5,4.2-3.5,4.2c-1.9,0-3.4-1.8-3.4-4.1
		C314.8,112,315.9,109.8,318.2,109.8 M318.3,109.1c-2.3,0-4.4,1.8-4.4,5c0,2.9,1.9,4.8,4.3,4.8c2.1,0,4.5-1.5,4.5-5
		C322.6,111,320.9,109.1,318.3,109.1 M306.6,105.8c-0.4,0-0.8,0.4-0.8,0.8s0.3,0.8,0.7,0.8c0.5,0,0.8-0.4,0.8-0.8
		C307.3,106.2,307,105.8,306.6,105.8 M307,109.3h-0.9v9.4h0.9V109.3z M296,106.9v2.4h-1.6v0.7h1.6v6c0,1,0.2,1.7,0.6,2.2
		s0.9,0.7,1.6,0.7c0.6,0,1-0.1,1.3-0.2l-0.1-0.7c-0.2,0.1-0.6,0.2-1.1,0.2c-1,0-1.4-0.8-1.4-2V110h2.7v-0.7h-2.7v-2.7L296,106.9z
		 M288.1,109.3h-0.9v5.9c0,0.4-0.1,0.7-0.2,1c-0.4,0.9-1.4,1.9-2.8,1.9c-1.9,0-2.5-1.5-2.5-3.5v-5.3h-0.9v5.5c0,3.6,2,4.2,3.2,4.2
		c1.7,0,2.8-1,3.2-1.9l0,0l0.1,1.7h0.9c0-0.7-0.1-1.5-0.1-2.3L288.1,109.3L288.1,109.3z M272.3,118.7h0.9v-13.9h-0.9V118.7z
		 M261.1,109.8c2.5,0,3.4,2.4,3.4,4.1c0,2.4-1.5,4.2-3.5,4.2c-1.9,0-3.4-1.8-3.4-4.1C257.6,112,258.7,109.8,261.1,109.8
		 M261.1,109.1c-2.3,0-4.4,1.8-4.4,5c0,2.9,1.9,4.8,4.3,4.8c2.1,0,4.5-1.5,4.5-5C265.5,111,263.7,109.1,261.1,109.1 M245,118.2
		c0.6,0.4,1.5,0.6,2.4,0.6c1.9,0,3.2-1.1,3.2-2.7c0-1.4-0.9-2.2-2.4-2.8c-1.3-0.5-1.9-1-1.9-1.9s0.6-1.6,1.8-1.6
		c0.9,0,1.5,0.3,1.9,0.6l0.4-0.8c-0.5-0.3-1.2-0.6-2.1-0.6c-1.8,0-2.9,1.2-2.9,2.5c0,1.1,0.8,2,2.4,2.6c1.4,0.5,2,1.1,2,2.1
		s-0.7,1.8-2.2,1.8c-0.8,0-1.6-0.3-2.1-0.6L245,118.2z M222.2,118.7h0.9v-5.8c0-0.4,0-0.6,0.1-0.9c0.4-1.2,1.5-2.1,2.8-2.1
		c1.9,0,2.6,1.5,2.6,3.2v5.6h0.9V113c0-3.5-2.4-3.9-3.3-3.9c-0.7,0-1.4,0.2-1.9,0.5c-0.6,0.3-1,0.8-1.3,1.4l0,0v-6.2h-0.9
		L222.2,118.7L222.2,118.7z M212,106.9v2.4h-1.6v0.7h1.6v6c0,1,0.2,1.7,0.6,2.2c0.4,0.5,0.9,0.7,1.6,0.7c0.6,0,1-0.1,1.3-0.2
		l-0.1-0.7c-0.2,0.1-0.6,0.2-1.1,0.2c-1,0-1.4-0.8-1.4-2V110h2.7v-0.7H213v-2.7L212,106.9z M203.1,118.7h0.9v-13.9h-0.9V118.7z
		 M194.8,115.7c0,0.2,0,0.4-0.1,0.6c-0.3,0.9-1.2,1.9-2.8,1.9c-1,0-1.9-0.6-1.9-2c0-2.3,2.7-2.6,4.8-2.5V115.7z M195.8,118.7
		c-0.1-0.7-0.1-1.5-0.1-2.2v-3.7c0-1.7-0.5-3.7-3.2-3.7c-0.8,0-1.9,0.2-2.7,0.8l0.3,0.7c0.7-0.5,1.5-0.7,2.4-0.7
		c2.2,0,2.4,1.8,2.4,2.8v0.2c-3.8,0-5.7,1.3-5.7,3.4c0,1.3,0.9,2.6,2.8,2.6c1.5,0,2.5-0.8,3-1.6h0.1l0.1,1.4L195.8,118.7
		L195.8,118.7z M176.1,113.2c0.2-1.5,1.1-3.3,3.1-3.3c2.3,0,2.8,2,2.8,3.3H176.1z M183,113.9c0-0.2,0-0.3,0-0.6
		c0-1.4-0.6-4.3-3.7-4.3c-2.4,0-4.2,2-4.2,5.1c0,2.8,1.7,4.7,4.4,4.7c1.6,0,2.6-0.4,3-0.6l-0.2-0.7c-0.5,0.3-1.2,0.5-2.6,0.5
		c-1.9,0-3.6-1.2-3.6-4.2L183,113.9L183,113.9z M159.2,105.5v13.2h0.9v-6.6h7.3v6.6h0.9v-13.2h-0.9v5.8h-7.3v-5.8H159.2z"/>
</g>
</svg>
