<?xml version="1.0" encoding="utf-8"?>
<!-- Generator: Adobe Illustrator 21.1.0, SVG Export Plug-In . SVG Version: 6.00 Build 0)  -->
<svg version="1.1" id="Calque_1" xmlns="http://www.w3.org/2000/svg" xmlns:xlink="http://www.w3.org/1999/xlink" x="0px" y="0px"
	 viewBox="0 0 410.7 150.3" style="enable-background:new 0 0 410.7 150.3;" xml:space="preserve">
<style type="text/css">
	.st0{fill:#6E7175;}
	.st1{fill:#215E7D;}
</style>
<g>
	<path class="st0" d="M72.6,69.7c0.4-3.8,2.8-9.1,8.7-9.1c6.5,0,7.9,5.7,7.9,9.1H72.6z M101.7,79.3c0.2-1,0.5-3.1,0.5-5.5
		c0-11.2-5.5-22.5-20.1-22.5c-15.7,0-22.8,12.6-22.8,24.1c0,14.1,8.8,23,24.1,23c6.1,0,11.7-0.9,16.3-2.8L97.8,86
		c-3.8,1.2-7.7,1.8-12.4,1.8c-6.5,0-12.3-2.8-12.7-8.6H101.7z M18.7,71.6c0-0.9,0.1-1.8,0.3-2.6c0.9-4.1,4.4-6.9,8.2-6.9
		c6.5,0,9.7,5.5,9.7,12.5c0,8.1-3.7,12.7-9.7,12.7c-4.1,0-7.3-2.9-8.2-6.6c-0.2-0.7-0.3-1.6-0.3-2.5V71.6z M16.2,97.4l0.6-6.3h0.2
		c3.2,5.3,8.3,7.3,13.6,7.3c10.3,0,20.7-8.1,20.7-24.3c0.1-13.8-7.8-22.8-18.6-22.8c-6.3,0-11,2.5-13.6,6.4h-0.2V31.9h-14v52
		c0,5.1-0.2,10.5-0.4,13.5H16.2z"/>
</g>
<rect x="115.2" y="4.4" class="st0" width="4.3" height="141.7"/>
<g>
	<path class="st1" d="M373.2,95c3.5,1.9,8.8,3.2,14.8,3.2c13.1,0,19.8-6.3,19.8-14.8c-0.1-6.7-3.7-11.1-12.4-14.1
		c-5.6-2-7.4-3.1-7.4-5.2c0-2.3,2-3.7,5.4-3.7c3.9,0,7.9,1.5,9.9,2.6l2.5-9.8c-2.8-1.4-7.6-2.6-12.9-2.6c-11.3,0-18.6,6.5-18.6,15
		c-0.1,5.4,3.6,10.6,13,13.8c5.3,1.8,6.7,2.9,6.7,5.2c0,2.3-1.8,3.8-6.1,3.8c-4.2,0-9.6-1.9-12.3-3.5L373.2,95z M321.3,51.5
		l16.7,41.8c0.6,1.1,0.7,1.9,0.7,2.3c0,0.7-0.3,1.4-0.7,2.1c-1.4,2.3-3.7,4.6-5.9,5.7c-2.2,1.3-4.4,2.2-6.2,2.4l3,12.1
		c3.6-0.5,8.8-2,13.8-6.3c5.1-4.6,9.5-11.9,16.1-30l10.7-30.1h-15.3l-5.6,22.5c-0.7,2.6-1.4,6.1-2.1,8.5h-0.3
		c-0.6-2.4-1.5-5.8-2.2-8.5l-6.8-22.5H321.3z M299,76.8c0,1.2-0.1,2.2-0.4,3.3c-0.8,4-4.1,6.8-8.2,6.8c-5.9,0-9.7-4.9-9.7-12.6
		c0-7.2,3.4-13,9.8-13c4.4,0,7.5,3.2,8.3,7c0.1,0.7,0.2,1.8,0.2,2.5V76.8z M299,30.8v24.8h-0.2c-2.1-3.2-6.5-5.1-12.1-5.1
		c-10.9,0-20.6,8.9-20.5,24.3c0,14.2,8.7,23.5,19.6,23.5c5.9,0,11.4-2.6,14.3-7.8h0.2l0.7,6.7h12.6c-0.2-3.1-0.4-8.5-0.4-13.7V30.8
		H299z M255.6,51.5h-14.3v27.2c0,1.1-0.1,2.2-0.5,3.1c-0.9,2.2-3.2,5-7.1,5c-5,0-7.1-4-7.1-10.7V51.5h-14.3v26.9
		c0,14.1,6.8,19.9,16.1,19.9c8.2,0,12.5-4.7,14.3-7.5h0.3l0.7,6.5h12.4c-0.2-3.8-0.4-8.7-0.4-14.7V51.5z M178.2,41.5v9.9h-6.1v10.5
		h6.1v18.7c0,6.5,1.3,10.9,3.9,13.6c2.2,2.3,6.1,3.9,10.7,3.9c4,0,7.4-0.5,9.3-1.2L202,86.2c-1,0.2-2.4,0.4-4.2,0.4
		c-4.3,0-5.6-2.5-5.6-8V61.9h10.2V51.5h-10.2V38.4L178.2,41.5z M131.1,95c3.5,1.9,8.8,3.2,14.8,3.2c13.1,0,19.8-6.3,19.8-14.8
		c-0.1-6.7-3.7-11.1-12.4-14.1c-5.6-2-7.4-3.1-7.4-5.2c0-2.3,2-3.7,5.4-3.7c3.9,0,7.9,1.5,9.9,2.6l2.5-9.8
		c-2.8-1.4-7.6-2.6-12.9-2.6c-11.3,0-18.6,6.5-18.6,15c-0.1,5.4,3.6,10.6,13,13.8c5.3,1.8,6.7,2.9,6.7,5.2c0,2.3-1.8,3.8-6.1,3.8
		c-4.2,0-9.6-1.9-12.3-3.5L131.1,95z"/>
	<path class="st0" d="M305.7,120h0.9v-5.9c0-0.3,0.1-0.6,0.1-0.8c0.4-1.2,1.5-2.2,2.8-2.2c2,0,2.6,1.6,2.6,3.3v5.6h0.9v-5.7
		c0-3.5-2.4-4-3.3-4c-1.6,0-2.7,0.9-3.3,1.9h0l-0.1-1.7h-0.9c0,0.7,0.1,1.4,0.1,2.3V120z M299.3,111.1c2.5,0,3.5,2.4,3.5,4.1
		c0,2.4-1.6,4.2-3.5,4.2c-1.9,0-3.5-1.8-3.5-4.1C295.8,113.3,296.9,111.1,299.3,111.1 M299.3,110.4c-2.3,0-4.5,1.8-4.5,5
		c0,3,1.9,4.9,4.3,4.9c2.1,0,4.5-1.5,4.5-5C303.7,112.3,301.9,110.4,299.3,110.4 M292.4,107c-0.4,0-0.8,0.4-0.8,0.8
		c0,0.4,0.3,0.8,0.7,0.8c0.5,0,0.8-0.4,0.8-0.8C293.2,107.4,292.9,107,292.4,107 M292.9,110.6H292v9.5h0.9V110.6z M286.7,108.1v2.4
		h-1.6v0.7h1.6v6c0,1,0.2,1.8,0.6,2.2c0.4,0.5,0.9,0.7,1.6,0.7c0.6,0,1-0.1,1.3-0.2l-0.1-0.7c-0.2,0.1-0.6,0.2-1.1,0.2
		c-1,0-1.4-0.8-1.4-2v-6.2h2.7v-0.7h-2.7v-2.7L286.7,108.1z M282.8,117c0,0.2,0,0.4-0.1,0.6c-0.3,0.9-1.2,1.9-2.8,1.9
		c-1,0-1.9-0.6-1.9-2c0-2.3,2.7-2.6,4.8-2.5V117z M283.8,120c-0.1-0.7-0.1-1.5-0.1-2.2v-3.7c0-1.7-0.5-3.7-3.3-3.7
		c-0.8,0-1.9,0.2-2.8,0.8l0.3,0.7c0.7-0.5,1.5-0.7,2.4-0.7c2.2,0,2.4,1.9,2.4,2.8v0.2c-3.8,0-5.8,1.3-5.8,3.5c0,1.3,0.9,2.6,2.8,2.6
		c1.5,0,2.6-0.8,3-1.6h0.1l0.1,1.4H283.8z M268.1,110.6l3.7,9.5h0.8l3.8-9.5h-1l-2.2,5.9c-0.4,0.9-0.7,1.7-1,2.5h0
		c-0.3-0.8-0.6-1.6-0.9-2.5l-2.2-5.9H268.1z M263.1,111.1c2.5,0,3.5,2.4,3.5,4.1c0,2.4-1.6,4.2-3.5,4.2c-1.9,0-3.5-1.8-3.5-4.1
		C259.6,113.3,260.7,111.1,263.1,111.1 M263.1,110.4c-2.3,0-4.5,1.8-4.5,5c0,3,1.9,4.9,4.3,4.9c2.1,0,4.5-1.5,4.5-5
		C267.5,112.3,265.7,110.4,263.1,110.4 M249.3,120h0.9v-5.9c0-0.3,0.1-0.6,0.1-0.8c0.4-1.2,1.5-2.2,2.8-2.2c2,0,2.6,1.6,2.6,3.3v5.6
		h0.9v-5.7c0-3.5-2.4-4-3.3-4c-1.6,0-2.7,0.9-3.3,1.9h0l-0.1-1.7h-0.9c0,0.7,0.1,1.4,0.1,2.3V120z M239.2,120h0.9v-5.9
		c0-0.3,0.1-0.6,0.1-0.8c0.4-1.2,1.5-2.2,2.8-2.2c2,0,2.6,1.6,2.6,3.3v5.6h0.9v-5.7c0-3.5-2.4-4-3.3-4c-1.6,0-2.7,0.9-3.3,1.9h0
		l-0.1-1.7h-0.9c0,0.7,0.1,1.4,0.1,2.3V120z M236,107c-0.4,0-0.8,0.4-0.8,0.8c0,0.4,0.3,0.8,0.7,0.8c0.5,0,0.8-0.4,0.8-0.8
		C236.7,107.4,236.5,107,236,107 M236.5,110.6h-0.9v9.5h0.9V110.6z M228,116.2c0,0.3,0,0.5-0.1,0.8c-0.4,1.6-1.7,2.5-3,2.5
		c-2.2,0-3.3-2-3.3-4.1c0-2.5,1.3-4.3,3.4-4.3c1.5,0,2.6,1.1,3,2.3c0.1,0.3,0.1,0.6,0.1,0.9V116.2z M228,106v6h0
		c-0.4-0.8-1.5-1.7-3.1-1.7c-2.3,0-4.3,2-4.3,5.1c0,2.8,1.8,4.8,4.1,4.8c1.8,0,2.9-1,3.4-2h0l0.1,1.8h0.8c0-0.7-0.1-1.5-0.1-2.2V106
		H228z M211.3,120h0.9v-5.9c0-0.3,0.1-0.6,0.1-0.8c0.4-1.2,1.5-2.2,2.8-2.2c2,0,2.6,1.6,2.6,3.3v5.6h0.9v-5.7c0-3.5-2.4-4-3.3-4
		c-1.6,0-2.7,0.9-3.3,1.9h0l-0.1-1.7h-0.9c0,0.7,0.1,1.4,0.1,2.3V120z M207.7,117c0,0.2,0,0.4-0.1,0.6c-0.3,0.9-1.2,1.9-2.8,1.9
		c-1,0-1.9-0.6-1.9-2c0-2.3,2.7-2.6,4.8-2.5V117z M208.8,120c-0.1-0.7-0.1-1.5-0.1-2.2v-3.7c0-1.7-0.5-3.7-3.3-3.7
		c-0.8,0-1.9,0.2-2.8,0.8l0.3,0.7c0.7-0.5,1.5-0.7,2.4-0.7c2.2,0,2.4,1.9,2.4,2.8v0.2c-3.8,0-5.8,1.3-5.8,3.5c0,1.3,0.9,2.6,2.8,2.6
		c1.5,0,2.6-0.8,3-1.6h0.1l0.1,1.4H208.8z M188.8,120h0.9v-5.8c0-0.4,0-0.7,0.1-0.9c0.4-1.2,1.5-2.2,2.9-2.2c1.9,0,2.6,1.6,2.6,3.3
		v5.6h0.9v-5.7c0-3.5-2.4-4-3.3-4c-0.7,0-1.4,0.2-1.9,0.5c-0.6,0.3-1,0.8-1.3,1.4h0V106h-0.9V120z M186.7,118.9
		c-0.5,0.2-1.2,0.5-2.4,0.5c-2.2,0-3.7-1.6-3.7-4.1c0-2.2,1.3-4.2,3.8-4.2c1,0,1.8,0.3,2.2,0.6l0.3-0.8c-0.4-0.3-1.3-0.6-2.5-0.6
		c-2.8,0-4.9,2.1-4.9,5c0,2.9,1.8,4.8,4.6,4.8c1.4,0,2.3-0.4,2.8-0.6L186.7,118.9z M175.3,120h0.9v-5.2c0-0.3,0-0.6,0.1-0.9
		c0.3-1.5,1.2-2.6,2.5-2.6c0.2,0,0.3,0,0.5,0v-0.9c-0.1,0-0.3,0-0.4,0c-1.3,0-2.3,0.9-2.7,2.1h0l0-1.9h-0.9c0,0.9,0.1,1.9,0.1,2.8
		V120z M171.7,117c0,0.2,0,0.4-0.1,0.6c-0.3,0.9-1.2,1.9-2.8,1.9c-1,0-1.9-0.6-1.9-2c0-2.3,2.7-2.6,4.8-2.5V117z M172.8,120
		c-0.1-0.7-0.1-1.5-0.1-2.2v-3.7c0-1.7-0.5-3.7-3.3-3.7c-0.8,0-1.9,0.2-2.8,0.8l0.3,0.7c0.7-0.5,1.5-0.7,2.4-0.7
		c2.2,0,2.4,1.9,2.4,2.8v0.2c-3.8,0-5.8,1.3-5.8,3.5c0,1.3,0.9,2.6,2.8,2.6c1.5,0,2.6-0.8,3-1.6h0.1l0.1,1.4H172.8z M157.9,114.5
		c0.2-1.5,1.1-3.3,3.2-3.3c2.3,0,2.8,2,2.8,3.3H157.9z M164.8,115.2c0-0.2,0-0.3,0-0.6c0-1.4-0.6-4.3-3.7-4.3c-2.4,0-4.3,2-4.3,5.1
		c0,2.8,1.7,4.8,4.4,4.8c1.7,0,2.6-0.4,3-0.6l-0.2-0.7c-0.5,0.3-1.2,0.5-2.6,0.5c-2,0-3.6-1.2-3.6-4.2H164.8z M150.1,119.6
		c0.6,0.4,1.5,0.7,2.4,0.7c1.9,0,3.2-1.1,3.2-2.7c0-1.4-0.9-2.2-2.4-2.8c-1.3-0.5-2-1-2-2c0-0.9,0.6-1.6,1.8-1.6
		c0.9,0,1.6,0.3,1.9,0.6l0.4-0.8c-0.5-0.3-1.2-0.6-2.1-0.6c-1.9,0-2.9,1.2-2.9,2.6c0,1.1,0.8,2,2.4,2.6c1.4,0.6,2,1.1,2,2.2
		c0,1-0.7,1.8-2.2,1.8c-0.8,0-1.6-0.3-2.1-0.7L150.1,119.6z M141.9,114.5c0.2-1.5,1.1-3.3,3.2-3.3c2.3,0,2.8,2,2.8,3.3H141.9z
		 M148.8,115.2c0-0.2,0-0.3,0-0.6c0-1.4-0.6-4.3-3.7-4.3c-2.4,0-4.3,2-4.3,5.1c0,2.8,1.7,4.8,4.4,4.8c1.7,0,2.6-0.4,3-0.6l-0.2-0.7
		c-0.5,0.3-1.2,0.5-2.6,0.5c-2,0-3.6-1.2-3.6-4.2H148.8z M133,107.6c0.3-0.1,1-0.2,1.9-0.2c2.1,0,3.6,0.8,3.6,2.9
		c0,1.8-1.3,2.9-3.4,2.9H133V107.6z M132.1,120h0.9v-6.1h2.1c1.8,0.1,2.6,0.9,3,2.9c0.4,1.7,0.6,2.8,0.8,3.2h1
		c-0.3-0.5-0.5-1.5-1-3.6c-0.3-1.5-1-2.5-2.1-2.8v0c1.5-0.5,2.6-1.7,2.6-3.5c0-0.9-0.4-1.8-0.9-2.4c-0.8-0.7-1.9-1.1-3.6-1.1
		c-0.9,0-2.1,0.1-2.9,0.3V120z"/>
</g>
</svg>
