<?xml version="1.0" encoding="utf-8"?>
<!-- Generator: Adobe Illustrator 21.1.0, SVG Export Plug-In . SVG Version: 6.00 Build 0)  -->
<svg version="1.1" id="Calque_1" xmlns="http://www.w3.org/2000/svg" xmlns:xlink="http://www.w3.org/1999/xlink" x="0px" y="0px"
	 viewBox="0 0 206.7 145.4" style="enable-background:new 0 0 206.7 145.4;" xml:space="preserve">
<style type="text/css">
	.st0{fill:#6E7175;}
	.st1{fill:#B5A26C;}
	.st2{fill:#AA9A6C;}
</style>
<g>
	<path class="st0" d="M69.6,66.1c0.4-3.8,2.8-9.1,8.7-9.1c6.5,0,7.9,5.7,7.9,9.1H69.6z M98.7,75.7c0.2-1,0.5-3.1,0.5-5.5
		c0-11.2-5.5-22.5-20.1-22.5c-15.7,0-22.8,12.6-22.8,24.1c0,14.1,8.8,23.1,24.1,23.1c6.1,0,11.7-1,16.3-2.9l-1.8-9.5
		c-3.8,1.2-7.7,1.8-12.4,1.8c-6.5,0-12.3-2.8-12.7-8.6H98.7z M17,67.9c0-0.9,0.1-1.8,0.3-2.6c0.9-4.1,4.4-6.9,8.2-6.9
		c6.5,0,9.7,5.5,9.7,12.5c0,8.1-3.7,12.7-9.7,12.7c-4.1,0-7.3-2.9-8.2-6.6c-0.2-0.7-0.3-1.6-0.3-2.5V67.9z M3,80.3
		c0,5.1-0.2,10.5-0.4,13.5h11.9l0.6-6.3h0.2c3.2,5.3,8.3,7.3,13.6,7.3c10.3,0,20.7-8.1,20.7-24.3c0.1-13.8-7.8-22.8-18.6-22.8
		c-6.3,0-11,2.5-13.6,6.4H17V28.3H3V80.3z"/>
	<path class="st1" d="M174.8,92.4c3.1,1.8,7.7,3.1,12.5,3.1c10.6,0,16.7-5.6,16.7-13.5c0-6.6-4-10.5-11.7-13.5
		c-5.8-2.2-8.5-3.9-8.5-7.6c0-3.3,2.7-6.1,7.5-6.1c4.2,0,7.4,1.5,9.1,2.6l2-5.9c-2.5-1.5-6.5-2.8-11-2.8c-9.6,0-15.4,5.9-15.4,13.1
		c0,5.3,3.8,9.8,11.8,12.6c6,2.2,8.3,4.3,8.3,8.2c0,3.7-2.8,6.6-8.7,6.6c-4.1,0-8.3-1.7-10.7-3.2L174.8,92.4z"/>
</g>
<rect x="111.6" y="1.7" class="st0" width="4.3" height="92.1"/>
<g>
	<path class="st0" d="M121,109.6c0.1-1.1,0.8-2.4,2.3-2.4c1.6,0,2,1.4,2,2.4H121z M126,110.1c0-0.1,0-0.2,0-0.4c0-1-0.4-3.1-2.7-3.1
		c-1.8,0-3.1,1.4-3.1,3.7c0,2,1.2,3.4,3.2,3.4c1.2,0,1.9-0.3,2.1-0.4l-0.2-0.5c-0.4,0.2-0.9,0.4-1.9,0.4c-1.4,0-2.6-0.9-2.6-3H126z
		 M118.6,113.6v-6.3h1.8v-0.5h-1.8v-0.4c0-1.3,0.3-2.5,1.5-2.5c0.4,0,0.7,0.1,0.9,0.2l0.2-0.5c-0.2-0.1-0.6-0.2-1-0.2
		c-0.5,0-1.1,0.2-1.5,0.6c-0.6,0.6-0.8,1.4-0.8,2.5v0.4h-1v0.5h1v6.3H118.6z M115.7,104.2c-0.3,0-0.6,0.3-0.6,0.6
		c0,0.3,0.2,0.6,0.5,0.6c0.4,0,0.6-0.3,0.6-0.6C116.2,104.5,116,104.2,115.7,104.2 M116,106.8h-0.7v6.8h0.7V106.8z M112.8,113.6h0.7
		v-10.1h-0.7V113.6z M107.6,113.6h0.7v-10.1h-0.7V113.6z M105.2,111.4c0,0.1,0,0.3-0.1,0.4c-0.2,0.7-0.9,1.4-2,1.4
		c-0.7,0-1.4-0.4-1.4-1.4c0-1.6,2-1.9,3.5-1.8V111.4z M106,113.6c-0.1-0.5-0.1-1.1-0.1-1.6v-2.7c0-1.2-0.4-2.7-2.3-2.7
		c-0.6,0-1.4,0.2-2,0.6l0.2,0.5c0.5-0.4,1.1-0.5,1.7-0.5c1.6,0,1.7,1.3,1.7,2v0.2c-2.8,0-4.2,0.9-4.2,2.5c0,0.9,0.6,1.9,2,1.9
		c1.1,0,1.8-0.6,2.2-1.1h0l0.1,1H106z M98,105v1.8h-1.2v0.5H98v4.3c0,0.7,0.1,1.3,0.4,1.6c0.3,0.3,0.7,0.5,1.2,0.5
		c0.4,0,0.7-0.1,1-0.2l-0.1-0.5c-0.2,0.1-0.4,0.1-0.8,0.1c-0.7,0-1-0.6-1-1.4v-4.4h1.9v-0.5h-1.9v-2L98,105z M95.5,104.2
		c-0.3,0-0.6,0.3-0.6,0.6c0,0.3,0.2,0.6,0.5,0.6c0.4,0,0.6-0.3,0.6-0.6C96.1,104.5,95.9,104.2,95.5,104.2 M95.9,106.8h-0.7v6.8h0.7
		V106.8z M92.8,110.8c0,0.2,0,0.5-0.1,0.7c-0.3,1-1.2,1.5-2.1,1.5c-1.6,0-2.4-1.3-2.4-2.9c0-1.8,1-3,2.4-3c1.1,0,1.8,0.7,2.1,1.6
		c0.1,0.2,0.1,0.4,0.1,0.7V110.8z M92.9,106.8l0,1.2h0c-0.3-0.6-1-1.3-2.3-1.3c-1.5,0-3.1,1.3-3.1,3.6c0,1.9,1.2,3.4,2.9,3.4
		c1.2,0,2-0.6,2.4-1.3h0v1c0,2-1,2.8-2.5,2.8c-0.9,0-1.5-0.3-2-0.6l-0.2,0.6c0.5,0.4,1.4,0.6,2.2,0.6c0.8,0,1.7-0.2,2.3-0.8
		c0.6-0.5,0.9-1.4,0.9-3.2v-4.1c0-0.7,0-1.3,0.1-1.8H92.9z M85.9,104.2c-0.3,0-0.6,0.3-0.6,0.6c0,0.3,0.2,0.6,0.5,0.6
		c0.4,0,0.6-0.3,0.6-0.6C86.4,104.5,86.2,104.2,85.9,104.2 M86.2,106.8h-0.7v6.8h0.7V106.8z M83.1,110.8c0,0.2,0,0.4-0.1,0.6
		c-0.3,1.1-1.2,1.8-2.2,1.8c-1.6,0-2.4-1.4-2.4-2.9c0-1.8,0.9-3.1,2.4-3.1c1.1,0,1.9,0.8,2.1,1.7c0,0.2,0.1,0.4,0.1,0.6V110.8z
		 M83.1,103.5v4.3h0c-0.3-0.6-1.1-1.2-2.2-1.2c-1.7,0-3.1,1.4-3.1,3.7c0,2,1.3,3.4,2.9,3.4c1.3,0,2.1-0.7,2.4-1.4h0l0,1.3h0.6
		c0-0.5-0.1-1.1-0.1-1.6v-8.5H83.1z M71.9,113.6h0.7v-3.8c0-0.2,0-0.5,0.1-0.7c0.2-1.1,0.9-1.9,1.8-1.9c0.1,0,0.2,0,0.3,0v-0.7
		c-0.1,0-0.2,0-0.3,0c-0.9,0-1.6,0.7-1.9,1.5h0l0-1.4h-0.6c0,0.7,0.1,1.4,0.1,2V113.6z M70.1,106.8h-0.7v4.2c0,0.3-0.1,0.5-0.1,0.8
		c-0.3,0.7-1,1.4-2,1.4c-1.4,0-1.8-1.1-1.8-2.5v-3.8h-0.7v4c0,2.6,1.4,3,2.3,3c1.2,0,2-0.7,2.3-1.4h0l0,1.2h0.6
		c0-0.5-0.1-1.1-0.1-1.7V106.8z M60.4,107.2c1.8,0,2.5,1.7,2.5,3c0,1.7-1.1,3-2.5,3c-1.4,0-2.5-1.3-2.5-3
		C57.9,108.7,58.7,107.2,60.4,107.2 M60.4,106.6c-1.7,0-3.2,1.3-3.2,3.6c0,2.1,1.4,3.5,3.1,3.5c1.5,0,3.3-1.1,3.3-3.6
		C63.6,108,62.3,106.6,60.4,106.6 M51.1,106.8l2.5,6.3c0.1,0.1,0.1,0.2,0.1,0.3c0,0.1,0,0.1-0.1,0.3c-0.3,0.8-0.8,1.4-1.1,1.7
		c-0.4,0.4-0.9,0.6-1.2,0.8l0.2,0.6c0.2-0.1,0.7-0.3,1.2-0.7c0.9-0.8,1.5-2,2.3-4.2l2-5.1h-0.7l-1.7,4.4c-0.2,0.6-0.4,1.1-0.5,1.5h0
		c-0.1-0.4-0.3-1-0.5-1.5l-1.8-4.5H51.1z M46.9,110.8c0,0.2,0,0.5-0.1,0.7c-0.3,1-1.2,1.5-2.1,1.5c-1.6,0-2.4-1.3-2.4-2.9
		c0-1.8,1-3,2.4-3c1.1,0,1.8,0.7,2.1,1.6c0.1,0.2,0.1,0.4,0.1,0.7V110.8z M47,106.8l0,1.2h0c-0.3-0.6-1-1.3-2.3-1.3
		c-1.5,0-3.1,1.3-3.1,3.6c0,1.9,1.2,3.4,2.9,3.4c1.2,0,2-0.6,2.4-1.3h0v1c0,2-1,2.8-2.5,2.8c-0.9,0-1.5-0.3-2-0.6l-0.2,0.6
		c0.5,0.4,1.4,0.6,2.2,0.6c0.8,0,1.7-0.2,2.3-0.8c0.6-0.5,0.9-1.4,0.9-3.2v-4.1c0-0.7,0-1.3,0.1-1.8H47z M35,113.6h0.7v-4.2
		c0-0.2,0-0.4,0.1-0.6c0.3-0.9,1.1-1.6,2-1.6c1.4,0,1.9,1.1,1.9,2.4v4h0.7v-4.1c0-2.6-1.7-2.9-2.4-2.9c-1.1,0-2,0.6-2.3,1.4h0
		l-0.1-1.2H35c0,0.5,0.1,1,0.1,1.6V113.6z M32.9,104.2c-0.3,0-0.6,0.3-0.6,0.6c0,0.3,0.2,0.6,0.5,0.6c0.4,0,0.6-0.3,0.6-0.6
		C33.4,104.5,33.2,104.2,32.9,104.2 M33.2,106.8h-0.7v6.8h0.7V106.8z M25.4,113.6H26v-4.2c0-0.2,0-0.4,0.1-0.6
		c0.3-0.9,1.1-1.6,2-1.6c1.4,0,1.9,1.1,1.9,2.4v4h0.7v-4.1c0-2.6-1.7-2.9-2.4-2.9c-1.1,0-2,0.6-2.3,1.4h0l-0.1-1.2h-0.6
		c0,0.5,0.1,1,0.1,1.6V113.6z M18.2,113.6h0.7v-4.2c0-0.2,0-0.4,0.1-0.6c0.3-0.9,1.1-1.6,2-1.6c1.4,0,1.9,1.1,1.9,2.4v4h0.7v-4.1
		c0-2.6-1.7-2.9-2.4-2.9c-1.1,0-2,0.6-2.3,1.4h0l-0.1-1.2h-0.6c0,0.5,0.1,1,0.1,1.6V113.6z M15.8,111.4c0,0.1,0,0.3-0.1,0.4
		c-0.2,0.7-0.9,1.4-2,1.4c-0.7,0-1.4-0.4-1.4-1.4c0-1.6,2-1.9,3.5-1.8V111.4z M16.6,113.6c-0.1-0.5-0.1-1.1-0.1-1.6v-2.7
		c0-1.2-0.4-2.7-2.3-2.7c-0.6,0-1.4,0.2-2,0.6l0.2,0.5c0.5-0.4,1.1-0.5,1.7-0.5c1.6,0,1.7,1.3,1.7,2v0.2c-2.8,0-4.2,0.9-4.2,2.5
		c0,0.9,0.6,1.9,2,1.9c1.1,0,1.8-0.6,2.2-1.1h0l0.1,1H16.6z M9.7,113.6h0.7v-10.1H9.7V113.6z M3.8,104.6c0.3-0.1,0.7-0.1,1.4-0.1
		c1.5,0,2.6,0.7,2.6,2.2c0,1.5-1,2.4-2.7,2.4c-0.5,0-0.9,0-1.2-0.1V104.6z M3.1,113.6h0.7v-4.1c0.3,0.1,0.7,0.1,1.2,0.1
		c1.2,0,2.2-0.4,2.8-1.1c0.4-0.5,0.7-1.1,0.7-1.9c0-0.8-0.3-1.4-0.7-1.9c-0.5-0.5-1.4-0.8-2.5-0.8c-0.8,0-1.5,0.1-2,0.2V113.6z"/>
	<path class="st1" d="M133.7,106.4"/>
	<path class="st1" d="M134.6,105.8"/>
	<path class="st2" d="M134.7,114c2-0.8,4.6-2.2,7.1-4.4c5.5-4.8,9.5-12.6,15.3-27.9l12.2-31.8h-8.6l-8.9,26.2
		c-1.1,3.2-2,6.6-2.9,9.3h-0.2c-0.7-2.7-1.8-6.2-2.9-9.1l-9.8-26.4h-8.9L143.8,91c0.4,1,0.6,1.7,0.6,2.1c0,0.5-0.3,1.1-0.6,1.9
		c-1.8,4.2-4.6,7.3-6.8,9c-0.7,0.6-1.5,1.2-2.3,1.7L134.7,114"/>
</g>
</svg>
