<?xml version="1.0" encoding="utf-8"?>
<!-- Generator: Adobe Illustrator 21.1.0, SVG Export Plug-In . SVG Version: 6.00 Build 0)  -->
<svg version="1.1" id="Calque_1" xmlns="http://www.w3.org/2000/svg" xmlns:xlink="http://www.w3.org/1999/xlink" x="0px" y="0px"
	 viewBox="0 0 75 75" style="enable-background:new 0 0 75 75;" xml:space="preserve">
<style type="text/css">
	.st0{fill:none;stroke:#B5A26C;stroke-width:4.137;stroke-linecap:round;stroke-linejoin:round;}
	.st1{fill:#FFFFFF;}
	.st2{fill:none;stroke:#6D7175;stroke-width:2.451;stroke-linecap:round;stroke-linejoin:round;}
</style>
<g>
	<path class="st0" d="M18.9,18.6c0,0,8.6-1.7,13.5,3.2s3.3,13.6,3.3,13.6s-8.4,1.9-13.5-3.2C17.1,27.1,18.9,18.6,18.9,18.6z"/>
	<path class="st1" d="M57.8,19.5c0,0-12.9-2.6-20.2,4.8c-7.3,7.3-4.9,20.4-4.9,20.4s12.6,2.9,20.2-4.8
		C60.5,32.2,57.8,19.5,57.8,19.5"/>
	<path class="st0" d="M57.8,19.5c0,0-12.9-2.6-20.2,4.8c-7.3,7.3-4.9,20.4-4.9,20.4s12.6,2.9,20.2-4.8
		C60.5,32.2,57.8,19.5,57.8,19.5z"/>
	<path class="st0" d="M32.2,40.1c0,0-0.4,10.1,3.3,16.2"/>
	<path class="st2" d="M51.1,25.7c-0.6,0.3-8.6,3.4-12.6,12.9"/>
	<path class="st2" d="M29.1,28.7c0,0-2.8-0.8-4.9-4.5"/>
</g>
</svg>
