<?xml version="1.0" encoding="utf-8"?>
<!-- Generator: Adobe Illustrator 21.1.0, SVG Export Plug-In . SVG Version: 6.00 Build 0)  -->
<svg version="1.1" id="Calque_1" xmlns="http://www.w3.org/2000/svg" xmlns:xlink="http://www.w3.org/1999/xlink" x="0px" y="0px"
	 viewBox="0 0 75 75" style="enable-background:new 0 0 75 75;" xml:space="preserve">
<style type="text/css">
	.st0{fill:#B5A26C;}
	.st1{fill:#6D7175;}
	.st2{fill:#FFFFFF;}
</style>
<g>
	<path class="st0" d="M53.1,74.1H35.9c-0.9,0-1.6-0.7-1.6-1.6V17.3c0-0.9,0.7-1.6,1.6-1.6h17.2c0.9,0,1.6,0.7,1.6,1.6v55.2
		C54.8,73.4,54,74.1,53.1,74.1z M37.5,70.9h14V19h-14V70.9z"/>
</g>
<g>
	<g>
		<g>
			<g>
				<path class="st1" d="M42.1,68.1c-0.8,0-1.5-0.7-1.5-1.5V65c0-0.8,0.7-1.5,1.5-1.5s1.5,0.7,1.5,1.5v1.6
					C43.6,67.4,42.9,68.1,42.1,68.1z"/>
			</g>
		</g>
	</g>
	<g>
		<g>
			<g>
				<path class="st1" d="M42.1,48c-0.8,0-1.5-0.7-1.5-1.5v-1.6c0-0.8,0.7-1.5,1.5-1.5s1.5,0.7,1.5,1.5v1.6
					C43.6,47.3,42.9,48,42.1,48z"/>
			</g>
		</g>
	</g>
	<g>
		<g>
			<g>
				<path class="st1" d="M47.1,68.1c-0.8,0-1.5-0.7-1.5-1.5V65c0-0.8,0.7-1.5,1.5-1.5s1.5,0.7,1.5,1.5v1.6
					C48.6,67.4,48,68.1,47.1,68.1z"/>
			</g>
		</g>
	</g>
	<g>
		<g>
			<g>
				<path class="st1" d="M47.1,48c-0.8,0-1.5-0.7-1.5-1.5v-1.6c0-0.8,0.7-1.5,1.5-1.5s1.5,0.7,1.5,1.5v1.6C48.6,47.3,48,48,47.1,48z
					"/>
			</g>
		</g>
	</g>
	<g>
		<g>
			<g>
				<path class="st1" d="M47.1,58.1c-0.8,0-1.5-0.7-1.5-1.5V55c0-0.8,0.7-1.5,1.5-1.5s1.5,0.7,1.5,1.5v1.6
					C48.6,57.4,48,58.1,47.1,58.1z"/>
			</g>
		</g>
	</g>
	<g>
		<g>
			<g>
				<path class="st1" d="M47.1,38c-0.8,0-1.5-0.7-1.5-1.5v-1.6c0-0.8,0.7-1.5,1.5-1.5s1.5,0.7,1.5,1.5v1.6C48.6,37.3,48,38,47.1,38z
					"/>
			</g>
		</g>
	</g>
	<g>
		<g>
			<g>
				<path class="st1" d="M47.1,27.9c-0.8,0-1.5-0.7-1.5-1.5v-1.6c0-0.8,0.7-1.5,1.5-1.5s1.5,0.7,1.5,1.5v1.6
					C48.6,27.2,48,27.9,47.1,27.9z"/>
			</g>
		</g>
	</g>
	<g>
		<g>
			<g>
				<path class="st1" d="M41.9,58.1c-0.8,0-1.5-0.7-1.5-1.5V55c0-0.8,0.7-1.5,1.5-1.5s1.5,0.7,1.5,1.5v1.6
					C43.4,57.4,42.7,58.1,41.9,58.1z"/>
			</g>
		</g>
	</g>
	<g>
		<g>
			<g>
				<path class="st1" d="M41.9,38c-0.8,0-1.5-0.7-1.5-1.5v-1.6c0-0.8,0.7-1.5,1.5-1.5s1.5,0.7,1.5,1.5v1.6
					C43.4,37.3,42.7,38,41.9,38z"/>
			</g>
		</g>
	</g>
	<g>
		<g>
			<g>
				<path class="st1" d="M41.9,27.9c-0.8,0-1.5-0.7-1.5-1.5v-1.6c0-0.8,0.7-1.5,1.5-1.5s1.5,0.7,1.5,1.5v1.6
					C43.4,27.2,42.7,27.9,41.9,27.9z"/>
			</g>
		</g>
	</g>
</g>
<g>
	<path class="st0" d="M57,74.5H32c-1.1,0-2-0.9-2-2s0.9-2,2-2h25c1.1,0,2,0.9,2,2S58.1,74.5,57,74.5z"/>
</g>
<rect x="22.9" y="37.4" class="st2" width="17.2" height="35.1"/>
<g>
	<path class="st0" d="M40.1,74.1H22.9c-0.9,0-1.6-0.7-1.6-1.6V37.4c0-0.9,0.7-1.6,1.6-1.6h17.2c0.9,0,1.6,0.7,1.6,1.6v35.1
		C41.7,73.4,41,74.1,40.1,74.1z M24.5,70.9h14V39h-14V70.9z"/>
</g>
<g>
	<g>
		<g>
			<g>
				<path class="st1" d="M29,68.1c-0.8,0-1.5-0.7-1.5-1.5V65c0-0.8,0.7-1.5,1.5-1.5s1.5,0.7,1.5,1.5v1.6
					C30.5,67.4,29.9,68.1,29,68.1z"/>
			</g>
		</g>
	</g>
	<g>
		<g>
			<g>
				<path class="st1" d="M34.1,68.1c-0.8,0-1.5-0.7-1.5-1.5V65c0-0.8,0.7-1.5,1.5-1.5s1.5,0.7,1.5,1.5v1.6
					C35.6,67.4,34.9,68.1,34.1,68.1z"/>
			</g>
		</g>
	</g>
	<g>
		<g>
			<g>
				<path class="st1" d="M34.1,58.1c-0.8,0-1.5-0.7-1.5-1.5V55c0-0.8,0.7-1.5,1.5-1.5s1.5,0.7,1.5,1.5v1.6
					C35.6,57.4,34.9,58.1,34.1,58.1z"/>
			</g>
		</g>
	</g>
	<g>
		<g>
			<g>
				<path class="st1" d="M34.1,48c-0.8,0-1.5-0.7-1.5-1.5v-1.6c0-0.8,0.7-1.5,1.5-1.5s1.5,0.7,1.5,1.5v1.6
					C35.6,47.3,34.9,48,34.1,48z"/>
			</g>
		</g>
	</g>
	<g>
		<g>
			<g>
				<path class="st1" d="M28.9,58.1c-0.8,0-1.5-0.7-1.5-1.5V55c0-0.8,0.7-1.5,1.5-1.5s1.5,0.7,1.5,1.5v1.6
					C30.4,57.4,29.7,58.1,28.9,58.1z"/>
			</g>
		</g>
	</g>
	<g>
		<g>
			<g>
				<path class="st1" d="M28.9,48c-0.8,0-1.5-0.7-1.5-1.5v-1.6c0-0.8,0.7-1.5,1.5-1.5s1.5,0.7,1.5,1.5v1.6
					C30.4,47.3,29.7,48,28.9,48z"/>
			</g>
		</g>
	</g>
</g>
<g>
	<path class="st0" d="M44,74.5H19c-1.1,0-2-0.9-2-2s0.9-2,2-2h25c1.1,0,2,0.9,2,2S45.1,74.5,44,74.5z"/>
</g>
<g>
	<path class="st1" d="M32.3,39.1V37c2.3-0.4,3.6-2,3.6-3.8s-1-3-3.4-3.8c-1.7-0.7-2.4-1.1-2.4-1.8c0-0.6,0.4-1.1,1.8-1.1
		c1.5,0,2.4,0.5,2.9,0.7l0.6-2.3c-0.7-0.3-1.6-0.6-3-0.7v-1.8h-2v1.9c-2.2,0.4-3.4,1.8-3.4,3.6c0,2,1.5,3,3.7,3.7
		c1.5,0.5,2.2,1,2.2,1.8s-0.8,1.3-2,1.3c-1.3,0-2.5-0.4-3.4-0.9l-0.6,2.4c0.8,0.4,2.1,0.8,3.5,0.9V39L32.3,39.1L32.3,39.1z"/>
</g>
<g>
	<g>
		<path class="st1" d="M44.6,18.5c-0.2,0-0.3,0-0.5-0.1c-5.5-2-6.7-6.9-6.5-9.3V4.7c0-0.6,0.4-1.2,1-1.4l5.6-2c0.3-0.1,0.7-0.1,1,0
			l5.6,2c0.6,0.2,1,0.8,1,1.4v4.5c0.1,2.4-1.1,7.3-6.5,9.3C44.9,18.5,44.7,18.5,44.6,18.5z M40.5,9.3c0,0.2-0.2,4.3,4.1,6.2
			c4.3-1.9,4.1-6.1,4.1-6.2V9.2V5.7l-4.1-1.4l-4.1,1.4V9.3C40.5,9.2,40.5,9.3,40.5,9.3z M39,9.2L39,9.2L39,9.2z"/>
	</g>
</g>
</svg>
