<?xml version="1.0" encoding="utf-8"?>
<!-- Generator: Adobe Illustrator 21.1.0, SVG Export Plug-In . SVG Version: 6.00 Build 0)  -->
<svg version="1.1" id="Calque_1" xmlns="http://www.w3.org/2000/svg" xmlns:xlink="http://www.w3.org/1999/xlink" x="0px" y="0px"
	 viewBox="0 0 75 75" style="enable-background:new 0 0 75 75;" xml:space="preserve">
<style type="text/css">
	.st0{fill:none;stroke:#6E7175;stroke-width:4.95;stroke-linejoin:round;}
	.st1{fill:none;stroke:#B5A26C;stroke-width:4.95;stroke-linecap:round;stroke-linejoin:round;}
	.st2{fill:#B5A26C;}
</style>
<g>
	<g>
		<rect x="13.4" y="20.6" class="st0" width="33.4" height="43.4"/>
	</g>
	<line class="st1" x1="21.8" y1="33.7" x2="38.4" y2="33.7"/>
	<line class="st1" x1="21.8" y1="42.3" x2="38.4" y2="42.3"/>
	<line class="st1" x1="21.8" y1="50.9" x2="38.4" y2="50.9"/>
	<g>
		<path class="st2" d="M49.4,18.1c0.2-1.7,1.2-4,3.8-4c2.9,0,3.5,2.5,3.5,4H49.4z M51,22.3h9.7c1.4,0,1.8-0.5,1.8-1.4v-1.1
			c0-4.9-2.4-10-8.9-10c-6.9,0-10.1,5.6-10.1,10.7c0,6.2,3.9,10.2,10,10.2c3.1,0,4.4-0.4,6.6-1.3c2.4-1,2.3-5-1.1-4.3
			c-1.9,0.4-2.7,1-4.9,0.9s-3.7-0.6-4.4-2.6C49.2,22.2,51,22.3,51,22.3"/>
	</g>
</g>
</svg>
