<?xml version="1.0" encoding="utf-8"?>
<!-- Generator: Adobe Illustrator 21.1.0, SVG Export Plug-In . SVG Version: 6.00 Build 0)  -->
<svg version="1.1" id="Calque_1" xmlns="http://www.w3.org/2000/svg" xmlns:xlink="http://www.w3.org/1999/xlink" x="0px" y="0px"
	 viewBox="0 0 75 75" style="enable-background:new 0 0 75 75;" xml:space="preserve">
<style type="text/css">
	.st0{fill:none;stroke:#6E7175;stroke-width:3.75;stroke-linecap:round;stroke-linejoin:round;}
	.st1{fill:#FFFFFF;}
	.st2{fill:none;stroke:#D9C8A1;stroke-width:3.938;stroke-linecap:round;stroke-linejoin:round;}
	.st3{fill:#D9C8A1;}
	.st4{fill:none;stroke:#D9C8A1;stroke-width:4.331;}
	.st5{opacity:0.8;}
	.st6{fill:none;stroke:#B5A26C;stroke-width:4.5;stroke-linejoin:round;}
	.st7{fill:none;stroke:#B5A26C;stroke-width:4.5;stroke-linecap:round;stroke-linejoin:round;}
	.st8{fill:#B5A26C;}
	.st9{fill:#6E7175;}
</style>
<g>
	<path class="st0" d="M37.4,17.7c0,0,11.2-4.1,11.2,13.6"/>
	<path class="st1" d="M31.3,19.8c0,0-2.4,1.7-3.1,5.8"/>
	<path class="st0" d="M31.3,19.8c0,0-2.4,1.7-3.1,5.8"/>
	<path class="st0" d="M26.5,31.8c0,0-2.5,21.1,6.3,23.7"/>
</g>
<path class="st2" d="M49.3,39.3"/>
<g>
	<path class="st3" d="M35.7,25.1"/>
</g>
<path class="st4" d="M35.7,25.1"/>
<path class="st0" d="M37.4,40.1v-7.7c0,0,0.3-7.1-2-7.1c-2.8,0-3.2,7.9-3.2,7.9"/>
<path class="st1" d="M32,39.8c0,0-0.7,8,4.5,8.5"/>
<path class="st0" d="M32,39.8c0,0-0.7,8,4.5,8.5"/>
<path class="st1" d="M42.1,24.2c0,0,1.5,1.4,1.5,9.9"/>
<path class="st0" d="M42.1,24.2c0,0,1.5,1.4,1.5,9.9"/>
<g class="st5">
	<g>
		<rect x="42.6" y="49.5" class="st6" width="17.4" height="14.2"/>
	</g>
</g>
<path class="st7" d="M59.9,49.7c0-4.3-3.8-7.8-8.6-7.8c-4.7,0-8.6,3.5-8.6,7.8"/>
<path class="st8" d="M51.3,58.6c1.1,0,1.9-0.9,1.9-1.9c0-1.1-0.9-1.9-1.9-1.9c-1.1,0-1.9,0.9-1.9,1.9C49.4,57.7,50.2,58.6,51.3,58.6
	"/>
<path class="st9" d="M40.6,60.5c-0.1,0-0.2,0-0.2,0L40,60.6c-0.9,0.1-3.6,0.6-4.3,0.6c-11.5,0-13.9-13.4-13.9-24.5
	c0-4.7,0.8-9.3,2.2-13.3c0.4-1.1-0.2-2.4-1.3-2.8c-1.1-0.4-2.4,0.2-2.8,1.3c-1.6,4.5-2.4,9.5-2.4,14.7c0,18.6,6.5,28.9,18.3,28.9
	c0.9,0,2.5-0.2,5-0.6H41c-0.2-0.4-0.2-0.9-0.2-1.1C40.7,63.4,40.6,61.4,40.6,60.5"/>
<path class="st9" d="M57.5,40.7c1.2-17.3-3-27.6-13.1-32.4c-3.3-1.6-6.1-1.7-10.3-0.6C29.3,9,26.7,11.6,24,15.5
	c-0.7,1-0.4,2.3,0.5,3c1,0.7,2.3,0.5,3-0.5c2.4-3.4,4.1-5.1,7.7-6.1c3.5-1,5.2-0.7,7.2,0.3C50.7,16.2,54,24.8,53,40
	c1.1,0.2,2.5,0.5,4.1,1.6C57.4,41.3,57.5,41,57.5,40.7"/>
</svg>
