<?xml version="1.0" encoding="utf-8"?>
<!-- Generator: Adobe Illustrator 21.1.0, SVG Export Plug-In . SVG Version: 6.00 Build 0)  -->
<svg version="1.1" id="Calque_1" xmlns="http://www.w3.org/2000/svg" xmlns:xlink="http://www.w3.org/1999/xlink" x="0px" y="0px"
	 viewBox="0 0 75 75" style="enable-background:new 0 0 75 75;" xml:space="preserve">
<style type="text/css">
	.st0{fill:#B5A26C;}
	.st1{fill:none;stroke:#B5A26C;stroke-width:4;stroke-linecap:round;stroke-linejoin:round;}
	.st2{fill:none;stroke:#6E7175;stroke-width:3.5;stroke-linecap:round;stroke-linejoin:round;}
	.st3{fill:none;stroke:#B5A26C;stroke-width:1.5;}
</style>
<g>
	<g>
		<path class="st0" d="M49.5,25.7c0,1-0.8,1.9-1.9,1.9c-1,0-1.9-0.8-1.9-1.9c0-1,0.8-1.9,1.9-1.9C48.7,23.9,49.5,24.7,49.5,25.7
			 M31.4,25.7c0,1-0.8,1.9-1.9,1.9c-1,0-1.9-0.8-1.9-1.9c0-1,0.8-1.9,1.9-1.9C30.6,23.9,31.4,24.7,31.4,25.7 M56,29.8v-0.2
			c0-0.3-0.1-6.4-6.2-6.4H27.6c-0.3,0-6.2,0.1-6.2,6.4v0.2H56z"/>
	</g>
	<g>
		<path class="st1" d="M27.6,21.8c-0.3,0-6.2,0.1-6.2,6.2v22.3c0,0.3,0.1,6.2,6.2,6.2h22.3c0.2,0,6.2-0.1,6.2-6.2V28
			c0-0.3-0.1-6.2-6.2-6.2H27.6L27.6,21.8z"/>
		<g>
			<g>
				<line class="st2" x1="43.7" y1="33.7" x2="43.7" y2="50.5"/>
			</g>
		</g>
		<g>
			<g>
				<line class="st2" x1="34.5" y1="33.7" x2="34.5" y2="50.5"/>
			</g>
		</g>
		<g>
			<g>
				<line class="st2" x1="50" y1="38.7" x2="27.4" y2="38.7"/>
			</g>
		</g>
		<g>
			<g>
				<line class="st2" x1="50" y1="45.8" x2="27.4" y2="45.8"/>
			</g>
		</g>
		<path class="st3" d="M48.3,25.5c1.3,0,2.4-1.9,2.4-4.2c0-2.3-1.1-4.2-2.4-4.2c-1.3,0-2.4,1.9-2.4,4.2
			C45.8,23.6,46.9,25.5,48.3,25.5z M30.2,25.5c1.3,0,2.4-1.9,2.4-4.2c0-2.3-1.1-4.2-2.4-4.2s-2.4,1.9-2.4,4.2
			C27.7,23.6,28.8,25.5,30.2,25.5z"/>
	</g>
</g>
</svg>
