<?xml version="1.0" encoding="utf-8"?>
<!-- Generator: Adobe Illustrator 21.1.0, SVG Export Plug-In . SVG Version: 6.00 Build 0)  -->
<svg version="1.1" id="Calque_1" xmlns="http://www.w3.org/2000/svg" xmlns:xlink="http://www.w3.org/1999/xlink" x="0px" y="0px"
	 viewBox="0 0 75 75" style="enable-background:new 0 0 75 75;" xml:space="preserve">
<style type="text/css">
	.st0{fill:#B5A26C;}
	.st1{fill:#FFFFFF;}
	.st2{fill:none;stroke:#77777A;stroke-width:4.62;stroke-linejoin:round;}
	.st3{fill:none;stroke:#77777A;stroke-width:4.712;stroke-linecap:round;stroke-linejoin:round;}
	.st4{fill:#6D7175;}
</style>
<g>
	<g>
		<path class="st0" d="M16.8,56.3H59c1.2,0,2.1-0.9,2.1-2.1c0-1.2-0.9-2.1-2.1-2.1H16.8c-1.2,0-2.1,0.9-2.1,2.1
			C14.7,55.4,15.6,56.3,16.8,56.3"/>
		<path class="st0" d="M57.8,29.9c3.2,0,6.1,1.3,8.2,3.3c2.1,2,3.4,4.8,3.4,7.8c0,3-1.3,5.8-3.4,7.8c-2.1,2-5,3.3-8.2,3.3
			c-1.2,0-2.1,0.9-2.1,2.1c0,1.2,0.9,2.1,2.1,2.1c4.3,0,8.3-1.7,11.2-4.5c2.9-2.8,4.7-6.6,4.7-10.9c0-4.2-1.8-8.1-4.7-10.9
			c-2.9-2.8-6.8-4.5-11.2-4.5c-1.2,0-2.1,0.9-2.1,2.1C55.7,29,56.6,29.9,57.8,29.9"/>
		<path class="st0" d="M59,27.6c-0.4-4.1-2.2-7.8-5-10.4c-2.8-2.6-6.5-4.3-10.6-4.3c-3.3,0-6.4,1.1-9,2.9c-2.5,1.8-4.5,4.4-5.6,7.4
			l2,0.7l0.4-2.1c-0.1,0-1.3-0.3-3-0.3c-1.1,0-2.4,0.1-3.8,0.4c-1,0.3-2.1,0.6-3.2,1.2c-1.6,0.9-3.1,2.3-4.2,4.2
			c-1.1,2-1.8,4.5-1.9,7.5l2.1,0.1v-2.1h-0.6c-3.3,0-6.3,1.3-8.4,3.4c-2.2,2.1-3.5,5-3.5,8.2c0,3.2,1.4,6.1,3.5,8.2
			c2.2,2.1,5.2,3.4,8.4,3.4c1.2,0,2.1-0.9,2.1-2.1s-0.9-2.1-2.1-2.1c-2.2,0-4.1-0.8-5.5-2.2C9.8,48.5,9,46.7,9,44.7
			c0-2,0.8-3.8,2.2-5.2c1.4-1.3,3.3-2.2,5.5-2.2h0.6c1.1,0,2.1-0.9,2.1-2.1c0.1-2.3,0.5-3.9,1.1-5.1c0.4-0.9,1-1.6,1.6-2.2
			c0.9-0.8,1.9-1.3,3-1.6c1.1-0.3,2.2-0.4,3.2-0.4c0.7,0,1.2,0,1.6,0.1c0.2,0,0.3,0,0.4,0.1l0.1,0l0,0l0.2-0.8l-0.2,0.8l0,0l0.2-0.8
			l-0.2,0.8c1,0.2,2-0.4,2.4-1.3c0.8-2.2,2.3-4.1,4.1-5.5c1.8-1.3,4.1-2.1,6.5-2.1c3,0,5.6,1.2,7.7,3.1c2,1.9,3.4,4.7,3.7,7.7
			c0.1,1.2,1.1,2,2.3,1.9C58.2,29.8,59.1,28.8,59,27.6"/>
		<path class="st0" d="M57.7,25.7l-0.9,0c-1.2,0-2.1,1-2,2.2c0,1.2,1,2.1,2.2,2l0.9,0c1.2,0,2.1-1,2-2.2
			C59.9,26.6,58.9,25.6,57.7,25.7"/>
	</g>
	<rect x="45.5" y="46" class="st1" width="17.7" height="14.5"/>
	<g>
		<rect x="45.5" y="46" class="st2" width="17.7" height="14.5"/>
		<g>
			<g>
				<path class="st3" d="M63.1,45.6c0-4.3-3.9-7.7-8.7-7.7s-8.7,3.5-8.7,7.7"/>
			</g>
		</g>
		<path class="st4" d="M54.3,55.3c1.1,0,2-0.9,2-2c0-1.1-0.9-2-2-2c-1.1,0-2,0.9-2,2C52.3,54.4,53.2,55.3,54.3,55.3"/>
	</g>
</g>
</svg>
