<?xml version="1.0" encoding="utf-8"?>
<!-- Generator: Adobe Illustrator 21.1.0, SVG Export Plug-In . SVG Version: 6.00 Build 0)  -->
<svg version="1.1" id="Calque_1" xmlns="http://www.w3.org/2000/svg" xmlns:xlink="http://www.w3.org/1999/xlink" x="0px" y="0px"
	 viewBox="0 0 75 75" style="enable-background:new 0 0 75 75;" xml:space="preserve">
<style type="text/css">
	.st0{fill:#AD9A6B;}
	.st1{fill:#77777A;}
</style>
<g>
	<g>
		<path class="st0" d="M60,55.8H14.1c-1.2,0-2.2-1-2.2-2.2V23.3c0-1.2,1-2.2,2.2-2.2H60c1.2,0,2.2,1,2.2,2.2v30.2
			C62.3,54.8,61.3,55.8,60,55.8z M16.4,51.3h41.4V25.6H16.4V51.3z"/>
	</g>
	<g>
		<g>
			<g>
				<path class="st1" d="M37.1,41.3c-0.4,0-0.9-0.1-1.3-0.4L12.7,25.3c-1-0.7-1.3-2.1-0.6-3.1c0.7-1,2.1-1.3,3.1-0.6l21.9,14.7
					l21.5-15c1-0.7,2.4-0.5,3.1,0.6c0.7,1,0.5,2.4-0.6,3.1L38.4,40.9C38,41.2,37.5,41.3,37.1,41.3z"/>
			</g>
		</g>
	</g>
</g>
</svg>
