<?xml version="1.0" encoding="utf-8"?>
<!-- Generator: Adobe Illustrator 21.1.0, SVG Export Plug-In . SVG Version: 6.00 Build 0)  -->
<svg version="1.1" id="Calque_1" xmlns="http://www.w3.org/2000/svg" xmlns:xlink="http://www.w3.org/1999/xlink" x="0px" y="0px"
	 viewBox="0 0 75 75" style="enable-background:new 0 0 75 75;" xml:space="preserve">
<style type="text/css">
	.st0{fill:none;stroke:#6E7175;stroke-width:4.5;stroke-linecap:round;stroke-linejoin:round;}
	.st1{fill:none;stroke:#B5A26C;stroke-width:4.5;stroke-linejoin:round;}
	.st2{fill:#B5A26C;}
	.st3{fill:none;stroke:#B5A26C;stroke-width:4.5;stroke-linecap:round;stroke-linejoin:round;}
</style>
<line class="st0" x1="4.2" y1="27" x2="71.9" y2="27"/>
<g>
	<g>
		<line class="st0" x1="60.5" y1="15.9" x2="71.9" y2="27.3"/>
	</g>
</g>
<g>
	<g>
		<line class="st0" x1="60.5" y1="38.3" x2="71.9" y2="26.9"/>
	</g>
</g>
<line class="st0" x1="71.9" y1="47.4" x2="4.2" y2="47.4"/>
<g>
	<g>
		<line class="st0" x1="13.8" y1="38" x2="4.2" y2="47.5"/>
	</g>
</g>
<g>
	<g>
		<line class="st0" x1="13.8" y1="56.7" x2="4.2" y2="47.1"/>
	</g>
</g>
<rect x="26.2" y="26.9" class="st1" width="24.8" height="20.5"/>
<path class="st2" d="M38.6,39.9c1.5,0,2.7-1.2,2.7-2.7c0-1.5-1.2-2.7-2.7-2.7s-2.7,1.2-2.7,2.7C35.8,38.7,37.1,39.9,38.6,39.9"/>
<g>
	<g>
		<path class="st3" d="M50.8,27.3c0-6.3-5.5-11.5-12.3-11.5S26.2,21,26.2,27.3"/>
	</g>
</g>
</svg>
