<?xml version="1.0" encoding="utf-8"?>
<!-- Generator: Adobe Illustrator 21.1.0, SVG Export Plug-In . SVG Version: 6.00 Build 0)  -->
<svg version="1.1" id="Calque_1" xmlns="http://www.w3.org/2000/svg" xmlns:xlink="http://www.w3.org/1999/xlink" x="0px" y="0px"
	 viewBox="0 0 75 75" style="enable-background:new 0 0 75 75;" xml:space="preserve">
<style type="text/css">
	.st0{fill:#6D7175;}
	.st1{fill:#B5A26C;}
</style>
<g>
	<path class="st0" d="M52.9,49.9H21.7c-1.2,0-2.2-1-2.2-2.2V7.1c0-1.2,1-2.2,2.2-2.2h31.2c1.2,0,2.2,1,2.2,2.2v40.6
		C55.1,48.9,54.1,49.9,52.9,49.9z M23.9,45.4h26.7V9.3H23.9V45.4z"/>
</g>
<g>
	<path class="st1" d="M45.1,17.9H29.5c-1,0-1.8-0.8-1.8-1.8s0.8-1.8,1.8-1.8h15.5c1,0,1.8,0.8,1.8,1.8S46,17.9,45.1,17.9z"/>
</g>
<g>
	<path class="st1" d="M45.1,25.9H29.5c-1,0-1.8-0.8-1.8-1.8c0-1,0.8-1.8,1.8-1.8h15.5c1,0,1.8,0.8,1.8,1.8
		C46.8,25.2,46,25.9,45.1,25.9z"/>
</g>
<g>
	<path class="st1" d="M45.1,34H29.5c-1,0-1.8-0.8-1.8-1.8c0-1,0.8-1.7,1.8-1.7h15.5c1,0,1.8,0.8,1.8,1.7C46.8,33.2,46,34,45.1,34z"
		/>
</g>
<g>
	<g>
		<g>
			<path class="st1" d="M37.3,70.5c-1.2,0-2.2-1-2.2-2.2V41.8c0-1.2,1-2.2,2.2-2.2c1.2,0,2.2,1,2.2,2.2v26.5
				C39.5,69.5,38.5,70.5,37.3,70.5z"/>
		</g>
	</g>
</g>
<g>
	<g>
		<g>
			<path class="st1" d="M37.2,70.5c-0.6,0-1.2-0.2-1.6-0.7L22.9,57.1c-0.9-0.9-0.9-2.3,0-3.2c0.9-0.9,2.3-0.9,3.2,0l11.1,11.1
				l11.3-11.1c0.9-0.9,2.3-0.9,3.2,0c0.9,0.9,0.9,2.3,0,3.2L38.8,69.8C38.3,70.3,37.7,70.5,37.2,70.5z"/>
		</g>
	</g>
</g>
</svg>
