<?xml version="1.0" encoding="utf-8"?>
<!-- Generator: Adobe Illustrator 21.1.0, SVG Export Plug-In . SVG Version: 6.00 Build 0)  -->
<svg version="1.1" id="Calque_1" xmlns="http://www.w3.org/2000/svg" xmlns:xlink="http://www.w3.org/1999/xlink" x="0px" y="0px"
	 viewBox="0 0 75 75" style="enable-background:new 0 0 75 75;" xml:space="preserve">
<style type="text/css">
	.st0{fill:#AD9A6B;}
	.st1{fill:#77777A;}
</style>
<g>
	<g>
		<g>
			<path class="st0" d="M54.6,59.8H23.4c-1.2,0-2.2-1-2.2-2.2V17c0-1.2,1-2.2,2.2-2.2h31.2c1.2,0,2.2,1,2.2,2.2v40.6
				C56.8,58.8,55.8,59.8,54.6,59.8z M25.6,55.3h26.7V19.2H25.6V55.3z"/>
		</g>
	</g>
	<g>
		<path class="st1" d="M46.7,31.4H31.2c-1.2,0-2.2-1-2.2-2.2c0-1.2,1-2.2,2.2-2.2h15.5c1.2,0,2.2,1,2.2,2.2
			C49,30.4,48,31.4,46.7,31.4z"/>
	</g>
	<g>
		<path class="st1" d="M46.7,39.5H31.2c-1.2,0-2.2-1-2.2-2.2s1-2.2,2.2-2.2h15.5c1.2,0,2.2,1,2.2,2.2S48,39.5,46.7,39.5z"/>
	</g>
	<g>
		<path class="st1" d="M46.7,47.5H31.2c-1.2,0-2.2-1-2.2-2.2c0-1.2,1-2.2,2.2-2.2h15.5c1.2,0,2.2,1,2.2,2.2
			C49,46.5,48,47.5,46.7,47.5z"/>
	</g>
</g>
</svg>
