<?xml version="1.0" encoding="utf-8"?>
<!-- Generator: Adobe Illustrator 21.1.0, SVG Export Plug-In . SVG Version: 6.00 Build 0)  -->
<svg version="1.1" id="Calque_1" xmlns="http://www.w3.org/2000/svg" xmlns:xlink="http://www.w3.org/1999/xlink" x="0px" y="0px"
	 viewBox="0 0 75 75" style="enable-background:new 0 0 75 75;" xml:space="preserve">
<style type="text/css">
	.st0{fill:none;stroke:#6E7175;stroke-width:4.5;stroke-linecap:square;stroke-linejoin:round;}
	.st1{fill:#B5A26C;}
</style>
<polyline class="st0" points="44,26.8 35.5,26.8 32,26.8 26.7,19.1 10.5,19.1 10.5,26.8 10.5,26.9 10.5,54.5 58.4,54.5 58.4,45.8 
	"/>
<g>
	<g>
		<g>
			<g>
				<path class="st1" d="M66.1,43.7H48.5c-1.2,0-2.2-1-2.2-2.2V26.9c0-1.2,1-2.2,2.2-2.2h17.6c1.2,0,2.2,1,2.2,2.2v14.5
					C68.3,42.6,67.3,43.7,66.1,43.7z M50.8,39.2h13.1v-10H50.8V39.2z"/>
			</g>
		</g>
	</g>
	<g>
		<g>
			<g>
				<path class="st1" d="M66,29c-1.2,0-2.2-1-2.2-2.2c0-3.2-2.9-5.8-6.5-5.8c-3.6,0-6.5,2.6-6.5,5.8c0,1.2-1,2.2-2.2,2.2
					s-2.2-1-2.2-2.2c0-5.7,5-10.2,11-10.2s11,4.6,11,10.2C68.2,28,67.2,29,66,29z"/>
			</g>
		</g>
	</g>
	<g>
		<path class="st1" d="M57.3,36.1c1.1,0,2-0.9,2-2s-0.9-2-2-2s-2,0.9-2,2C55.3,35.2,56.2,36.1,57.3,36.1"/>
	</g>
</g>
</svg>
