<?xml version="1.0" encoding="utf-8"?>
<!-- Generator: Adobe Illustrator 21.1.0, SVG Export Plug-In . SVG Version: 6.00 Build 0)  -->
<svg version="1.1" id="Calque_1" xmlns="http://www.w3.org/2000/svg" xmlns:xlink="http://www.w3.org/1999/xlink" x="0px" y="0px"
	 viewBox="0 0 75 75" style="enable-background:new 0 0 75 75;" xml:space="preserve">
<style type="text/css">
	.st0{fill:#AD9A6B;}
	.st1{fill:#FFFFFF;}
	.st2{fill:#77777A;}
</style>
<g>
	<g>
		<g>
			<path class="st0" d="M43,63.8c-8.7,0-15.7-7-15.7-15.7c0-1.2,1-2.2,2.2-2.2s2.2,1,2.2,2.2c0,6.2,5,11.2,11.2,11.2
				c6.2,0,11.2-5,11.2-11.2c0-1.2,1-2.2,2.2-2.2s2.2,1,2.2,2.2C58.7,56.8,51.6,63.8,43,63.8z"/>
		</g>
	</g>
</g>
<g>
	<g>
		<g>
			<path class="st0" d="M29.9,50.1c-6.7,0-14.6-5.4-14.6-12.4c0-1.2,1-2.2,2.3-2.2c1.2,0,2.2,1,2.2,2.2c0,4.3,5.5,7.9,10.1,7.9
				c4.5,0,10.1-3.7,10.1-7.9c0-1.2,1-2.2,2.2-2.2s2.2,1,2.2,2.2C44.5,44.7,36.7,50.1,29.9,50.1z"/>
		</g>
	</g>
</g>
<g>
	<g>
		<g>
			<path class="st0" d="M22.1,20.4c2,0,4.4-1.6,4.4-3.7c0-2-2.4-3.7-4.4-3.7c-2,0-3.7,1.6-3.7,3.7C18.5,18.7,20.1,20.4,22.1,20.4"/>
		</g>
	</g>
</g>
<g>
	<g>
		<g>
			<path class="st0" d="M37.6,20.4c2,0,3.7-1.6,3.7-3.7c0-2-1.6-3.7-3.7-3.7c-2,0-3.7,1.6-3.7,3.7C33.9,18.7,35.5,20.4,37.6,20.4"/>
		</g>
	</g>
</g>
<g>
	<g>
		<g>
			<path class="st0" d="M56.4,50.6c-1.2,0-2.2-1-2.2-2.2v-7.6c0-1.2,1-2.2,2.2-2.2s2.2,1,2.2,2.2v7.6C58.7,49.6,57.7,50.6,56.4,50.6
				z"/>
		</g>
	</g>
</g>
<g>
	<g>
		<g>
			<path class="st0" d="M42.3,39.7c-1.2,0-2.2-1-2.2-2.2V22.1L36.5,19c-0.9-0.8-1-2.2-0.2-3.2c0.8-0.9,2.2-1,3.2-0.2l4.3,3.8
				c0.5,0.4,0.8,1,0.8,1.7v16.4C44.5,38.7,43.5,39.7,42.3,39.7z"/>
		</g>
	</g>
</g>
<g>
	<g>
		<g>
			<path class="st0" d="M17.6,39.7c-1.2,0-2.3-1-2.3-2.2V21.1c0-0.6,0.3-1.3,0.8-1.7l4.3-3.8c0.9-0.8,2.4-0.7,3.2,0.2
				c0.8,0.9,0.7,2.4-0.2,3.2l-3.5,3.1v15.4C19.9,38.7,18.9,39.7,17.6,39.7z"/>
		</g>
	</g>
</g>
<g>
	<g>
		<g>
			<path class="st1" d="M56.4,40.5c2.9,0,5.3-2.4,5.3-5.3c0-2.9-2.4-5.3-5.3-5.3c-2.9,0-5.3,2.4-5.3,5.3
				C51.2,38.2,53.5,40.5,56.4,40.5"/>
		</g>
		<g>
			<path class="st2" d="M56.4,42.8c-4.1,0-7.5-3.4-7.5-7.5c0-4.1,3.4-7.5,7.5-7.5s7.5,3.4,7.5,7.5C63.9,39.4,60.6,42.8,56.4,42.8z
				 M56.4,32.3c-1.7,0-3,1.4-3,3c0,1.7,1.4,3,3,3c1.7,0,3-1.4,3-3C59.4,33.6,58.1,32.3,56.4,32.3z"/>
		</g>
	</g>
</g>
</svg>
