<?xml version="1.0" encoding="utf-8"?>
<!-- Generator: Adobe Illustrator 21.1.0, SVG Export Plug-In . SVG Version: 6.00 Build 0)  -->
<svg version="1.1" id="Calque_1" xmlns="http://www.w3.org/2000/svg" xmlns:xlink="http://www.w3.org/1999/xlink" x="0px" y="0px"
	 viewBox="0 0 75 75" style="enable-background:new 0 0 75 75;" xml:space="preserve">
<style type="text/css">
	.st0{fill:#AD9A6B;}
	.st1{fill:#77777A;}
</style>
<g>
	<g>
		<g>
			<path class="st0" d="M27.8,66c-3.4,0-6.7-1.3-9.3-3.8c-2.5-2.5-3.9-5.8-3.9-9.3c0-3.5,1.4-6.8,3.9-9.3c0.9-0.9,2.3-0.9,3.2,0
				c0.9,0.9,0.9,2.3,0,3.2c-1.6,1.6-2.5,3.8-2.5,6.1c0,2.3,0.9,4.5,2.5,6.1c3.4,3.4,8.9,3.4,12.2,0c0.9-0.9,2.3-0.9,3.2,0
				c0.9,0.9,0.9,2.3,0,3.2C34.5,64.7,31.2,66,27.8,66z"/>
		</g>
	</g>
</g>
<g>
	<g>
		<g>
			<path class="st0" d="M35.3,63c-0.6,0-1.2-0.2-1.6-0.7c-0.9-0.9-0.9-2.3,0-3.2l9.7-9.7c0.9-0.9,2.3-0.9,3.2,0
				c0.9,0.9,0.9,2.3,0,3.2l-9.7,9.7C36.5,62.7,35.9,63,35.3,63z"/>
		</g>
	</g>
</g>
<g>
	<g>
		<g>
			<path class="st0" d="M19.9,47.5c-0.6,0-1.2-0.2-1.6-0.7c-0.9-0.9-0.9-2.3,0-3.2l5.5-5.5c0.9-0.9,2.3-0.9,3.2,0
				c0.9,0.9,0.9,2.3,0,3.2l-5.5,5.5C21.1,47.3,20.5,47.5,19.9,47.5z"/>
		</g>
	</g>
</g>
<g>
	<g>
		<g>
			<path class="st0" d="M57.1,31.8c-0.6,0-1.2-0.2-1.6-0.7c-0.9-0.9-0.9-2.3,0-3.2c3.4-3.4,3.4-8.9,0-12.2c-1.6-1.6-3.8-2.5-6.1-2.5
				s-4.5,0.9-6.1,2.5c-0.9,0.9-2.3,0.9-3.2,0c-0.9-0.9-0.9-2.3,0-3.2c2.5-2.5,5.8-3.9,9.3-3.9c3.5,0,6.8,1.4,9.3,3.9
				c5.1,5.1,5.1,13.5,0,18.6C58.2,31.6,57.7,31.8,57.1,31.8z"/>
		</g>
	</g>
</g>
<g>
	<g>
		<g>
			<path class="st0" d="M51.9,37.1c-0.6,0-1.2-0.2-1.6-0.7c-0.9-0.9-0.9-2.3,0-3.2l5.3-5.3c0.9-0.9,2.3-0.9,3.2,0
				c0.9,0.9,0.9,2.3,0,3.2l-5.3,5.3C53,36.9,52.4,37.1,51.9,37.1z"/>
		</g>
	</g>
</g>
<g>
	<g>
		<g>
			<path class="st0" d="M32,26.1c-0.6,0-1.2-0.2-1.6-0.7c-0.9-0.9-0.9-2.3,0-3.2l9.7-9.7c0.9-0.9,2.3-0.9,3.2,0
				c0.9,0.9,0.9,2.3,0,3.2l-9.7,9.7C33.1,25.9,32.6,26.1,32,26.1z"/>
		</g>
	</g>
</g>
<g>
	<g>
		<g>
			<path class="st1" d="M39.9,44.5c-3.5,0-6.8-1.4-9.3-3.9c-5.1-5.1-5.1-13.5,0-18.6c0.9-0.9,2.3-0.9,3.2,0c0.9,0.9,0.9,2.3,0,3.2
				c-3.4,3.4-3.4,8.9,0,12.2c1.9,1.9,4.5,2.8,7.1,2.5c1.2-0.1,2.3,0.8,2.5,2c0.1,1.2-0.8,2.3-2,2.5C40.9,44.5,40.4,44.5,39.9,44.5z"
				/>
		</g>
	</g>
</g>
<g>
	<g>
		<g>
			<path class="st1" d="M44.9,53.3c-0.6,0-1.2-0.2-1.6-0.7c-0.9-0.9-0.9-2.3,0-3.2c1.6-1.6,2.5-3.8,2.5-6.1c0-2.3-0.9-4.5-2.5-6.1
				c-1.9-1.9-4.5-2.8-7.1-2.5c-1.2,0.1-2.3-0.8-2.5-2c-0.1-1.2,0.8-2.3,2-2.5c4-0.4,7.9,0.9,10.8,3.8c2.5,2.5,3.9,5.8,3.9,9.3
				c0,3.5-1.4,6.8-3.9,9.3C46,53.1,45.4,53.3,44.9,53.3z"/>
		</g>
	</g>
</g>
</svg>
