<?xml version="1.0" encoding="utf-8"?>
<!-- Generator: Adobe Illustrator 21.1.0, SVG Export Plug-In . SVG Version: 6.00 Build 0)  -->
<svg version="1.1" id="Calque_1" xmlns="http://www.w3.org/2000/svg" xmlns:xlink="http://www.w3.org/1999/xlink" x="0px" y="0px"
	 viewBox="0 0 75 75" style="enable-background:new 0 0 75 75;" xml:space="preserve">
<style type="text/css">
	.st0{fill:none;stroke:#B5A26C;stroke-width:2.977;stroke-linecap:round;stroke-linejoin:round;}
	.st1{fill:none;stroke:#6E7175;stroke-width:4.5;stroke-linecap:round;stroke-linejoin:round;}
	.st2{fill:none;stroke:#231F20;stroke-width:2.481;}
	.st3{fill:none;stroke:#AA996C;stroke-width:3.721;stroke-linecap:round;stroke-linejoin:round;}
	.st4{fill:#6D7175;}
</style>
<g>
	<g>
		<g>
			<path class="st0" d="M47.1,23.2c0,0,14-23.9,11.6,4.1"/>
		</g>
	</g>
	<path class="st0" d="M58.9,48.2c0,0,21.3,24.8-11.9,0.4"/>
	<path class="st0" d="M42.5,43.9c0,0-58.8,0.4-17.8-18.5"/>
	<g>
		<g>
			<circle class="st1" cx="40.9" cy="38.4" r="20.4"/>
		</g>
	</g>
	<g>
		<g>
			<path class="st0" d="M54.2,42.8c0,0-0.1-13.1-16.7-16.3"/>
		</g>
	</g>
	<g>
		<g>
			<path class="st0" d="M39.4,36.2c0,0,9.8-2,13.3-7.2"/>
		</g>
	</g>
</g>
<path class="st2" d="M54.3,53.3"/>
<g>
	<g>
		<g>
			<path class="st3" d="M39.2,50.4"/>
		</g>
	</g>
	<g>
		<g>
			<path class="st0" d="M28.4,37.8c0,0,1,6.1,6.1,12.4"/>
		</g>
	</g>
	<path class="st4" d="M28.2,36.3c-0.8,0.1-1.4,0.9-1.3,1.7c0.1,0.8,0.9,1.4,1.7,1.3c0.8-0.1,1.4-0.9,1.3-1.7
		C29.8,36.8,29,36.2,28.2,36.3"/>
	<path class="st4" d="M34.4,48.7c-0.8,0.1-1.4,0.9-1.3,1.7c0.1,0.8,0.9,1.4,1.7,1.3c0.8-0.1,1.4-0.9,1.3-1.7
		C35.9,49.2,35.2,48.6,34.4,48.7"/>
	<path class="st4" d="M39.3,34.7c-0.8,0-1.5,0.7-1.5,1.5c0,0.8,0.7,1.5,1.5,1.5c0.8,0,1.5-0.7,1.5-1.5
		C40.8,35.3,40.2,34.7,39.3,34.7"/>
	<path class="st4" d="M54.3,41.3c-0.8,0-1.5,0.7-1.5,1.5c0,0.8,0.7,1.5,1.5,1.5c0.8,0,1.5-0.7,1.5-1.5C55.7,42,55.1,41.3,54.3,41.3"
		/>
	<path class="st4" d="M52.6,27.4c-0.8,0-1.5,0.7-1.5,1.5c0,0.8,0.7,1.5,1.5,1.5c0.8,0,1.5-0.7,1.5-1.5
		C54.1,28.1,53.5,27.4,52.6,27.4"/>
	<path class="st4" d="M47.1,21.6c-0.8,0-1.5,0.7-1.5,1.5c0,0.8,0.7,1.5,1.5,1.5c0.8,0,1.5-0.7,1.5-1.5
		C48.6,22.3,47.9,21.6,47.1,21.6"/>
	<path class="st4" d="M37.6,25c-0.8,0-1.5,0.7-1.5,1.5c0,0.8,0.7,1.5,1.5,1.5c0.8,0,1.5-0.7,1.5-1.5C39.1,25.7,38.4,25,37.6,25"/>
	<path class="st4" d="M42.5,42.4c-0.8,0-1.5,0.7-1.5,1.5c0,0.8,0.7,1.5,1.5,1.5c0.8,0,1.5-0.7,1.5-1.5C44,43.1,43.3,42.4,42.5,42.4"
		/>
	<path class="st4" d="M46.9,46.9c-0.8,0-1.5,0.7-1.5,1.5c0,0.8,0.7,1.5,1.5,1.5s1.5-0.7,1.5-1.5C48.4,47.6,47.7,46.9,46.9,46.9"/>
</g>
</svg>
