<?xml version="1.0" encoding="utf-8"?>
<!-- Generator: Adobe Illustrator 21.1.0, SVG Export Plug-In . SVG Version: 6.00 Build 0)  -->
<svg version="1.1" id="Calque_1" xmlns="http://www.w3.org/2000/svg" xmlns:xlink="http://www.w3.org/1999/xlink" x="0px" y="0px"
	 viewBox="0 0 75 75" style="enable-background:new 0 0 75 75;" xml:space="preserve">
<style type="text/css">
	.st0{fill:#B5A26C;}
	.st1{fill:#6E7175;}
</style>
<g>
	<path class="st0" d="M41.8,59.2c-2.6,0-5.2-0.7-7.4-2C25.5,52,18.1,44.6,12.9,35.7c-1.3-2.3-2-4.8-2-7.4c0-3.9,1.5-7.7,4.3-10.4
		c2.7-2.7,6.2-4.2,10-4.2H26c1.5,0,2.8,0.9,3.3,2.3l3.8,10.3c0.5,1.3,0.2,2.8-0.8,3.7l-1.7,1.7c2.3,2.9,4.9,5.6,7.8,7.8l1.7-1.7
		c1-1,2.4-1.3,3.7-0.8L54,40.9c1.4,0.5,2.3,1.8,2.3,3.3v0.7c0,3.8-1.5,7.4-4.1,10C49.4,57.7,45.7,59.2,41.8,59.2z M25.2,18.2
		c-2.6,0-5,1-6.8,2.8c-1.9,1.9-3,4.5-3,7.3c0,1.8,0.5,3.6,1.4,5.2c4.8,8.2,11.6,15.1,19.8,19.9l0,0c1.6,0.9,3.3,1.4,5.1,1.4
		c2.7,0,5.3-1.1,7.2-3c1.8-1.8,2.8-4.3,2.8-6.9v0l-9-3.4l-2.6,2.7c-0.8,0.8-2,0.9-2.9,0.3c-4.5-3.2-8.4-7.1-11.5-11.6
		c-0.6-0.9-0.5-2.1,0.3-2.9l2.6-2.7L25.2,18.2z"/>
</g>
<g>
	<g>
		<g>
			<path class="st1" d="M47.8,34.6c-0.8,0-1.6-0.6-1.7-1.4l-2-10.3c-0.2-0.9,0.4-1.9,1.4-2c0.9-0.2,1.9,0.4,2,1.4l2,10.3
				c0.2,0.9-0.4,1.9-1.4,2C48,34.6,47.9,34.6,47.8,34.6z"/>
		</g>
	</g>
</g>
<g>
	<g>
		<g>
			<path class="st1" d="M56.5,37.6c-0.5,0-1-0.2-1.4-0.7c-0.6-0.8-0.4-1.9,0.3-2.5l8.3-6.3c0.8-0.6,1.9-0.4,2.5,0.3
				c0.6,0.8,0.4,1.9-0.3,2.5l-8.3,6.3C57.2,37.5,56.8,37.6,56.5,37.6z"/>
		</g>
	</g>
</g>
<g>
	<g>
		<g>
			<path class="st1" d="M52.9,34.7c-0.2,0-0.4,0-0.6-0.1c-0.9-0.3-1.4-1.4-1-2.3l3.7-9.8c0.3-0.9,1.4-1.4,2.3-1
				c0.9,0.3,1.4,1.4,1,2.3l-3.7,9.8C54.2,34.3,53.6,34.7,52.9,34.7z"/>
		</g>
	</g>
</g>
</svg>
