<?xml version="1.0" encoding="utf-8"?>
<!-- Generator: Adobe Illustrator 21.1.0, SVG Export Plug-In . SVG Version: 6.00 Build 0)  -->
<svg version="1.1" id="Calque_1" xmlns="http://www.w3.org/2000/svg" xmlns:xlink="http://www.w3.org/1999/xlink" x="0px" y="0px"
	 viewBox="0 0 75 75" style="enable-background:new 0 0 75 75;" xml:space="preserve">
<style type="text/css">
	.st0{fill:#B5A26C;}
	.st1{fill:none;stroke:#B5A26C;stroke-width:4.5;stroke-linejoin:round;}
	.st2{fill:#6E7175;}
</style>
<path class="st0" d="M51.4,20.4c-2.5-6.1-8.9-9.8-15.7-8.7c-5.3,0.9-9.4,4.7-11,9.4c1.6-0.7,3.2-1.2,4.9-1.5
	c4.2-0.7,8.2-0.2,11.9,1.2c0.4-0.1,0.8-0.3,1.2-0.4c0,0,0,0,0,0c0.3-0.1,0.6-0.1,0.9-0.2c1.2-0.3,2.4-0.4,3.6-0.4
	C48.7,19.9,50.1,20.1,51.4,20.4"/>
<path class="st0" d="M64,34.9C62.4,26,54,20.1,45.1,21.7c-0.4,0.1-0.8,0.2-1.2,0.3c5.9,3.1,10.4,8.8,11.7,15.9
	c1,5.5-0.2,10.9-2.8,15.4C60.5,50.9,65.4,43.1,64,34.9"/>
<ellipse transform="matrix(0.9848 -0.1737 0.1737 0.9848 -6.7468 6.4658)" class="st1" cx="33.6" cy="41.8" rx="18" ry="18"/>
<path class="st2" d="M40.3,46.6c-0.6,0.5-2,1.2-3.4,1.4c-1.5,0.3-3.1,0.1-4.3-0.9c-0.6-0.4-1-1.1-1.4-2l7.7-1.4l-0.4-2.2L30.4,43
	c0-0.2-0.1-0.3-0.1-0.5c-0.1-0.3-0.1-0.6-0.1-1l8.2-1.4l-0.4-2.2l-7.7,1.4c0.1-0.8,0.3-1.6,0.6-2.2c0.8-1.3,2-2.1,3.5-2.3
	c1.4-0.2,2.7-0.1,3.6,0.1l0.2-3.7c-1.2-0.3-2.9-0.4-4.8-0.1c-2.9,0.5-5.2,2.1-6.6,4.4c-0.8,1.3-1.3,2.9-1.4,4.6l-2.1,0.4l0.4,2.2
	l1.7-0.3c0.1,0.3,0.1,0.6,0.1,0.9c0,0.2,0.1,0.4,0.1,0.5L24,44.1l0.4,2.2l2-0.4c0.6,1.6,1.4,2.8,2.4,3.7c2.1,2,5.1,2.7,8.2,2.2
	c2-0.3,3.7-1.3,4.6-2L40.3,46.6z"/>
</svg>
