<?xml version="1.0" encoding="utf-8"?>
<!-- Generator: Adobe Illustrator 21.1.0, SVG Export Plug-In . SVG Version: 6.00 Build 0)  -->
<svg version="1.1" id="Calque_1" xmlns="http://www.w3.org/2000/svg" xmlns:xlink="http://www.w3.org/1999/xlink" x="0px" y="0px"
	 viewBox="0 0 75 75" style="enable-background:new 0 0 75 75;" xml:space="preserve">
<style type="text/css">
	.st0{fill:#B5A26C;}
	.st1{fill:#6D7175;}
</style>
<g>
	<path class="st0" d="M53.2,51.2H3.8c-1.2,0-2.1-0.9-2.1-2.1V17.6c0-1.2,0.9-2.1,2.1-2.1h53c1.2,0,2.1,0.9,2.1,2.1v14.1h-4.2v-12
		H5.9v27.3h47.3V51.2z"/>
</g>
<g>
	<path class="st0" d="M70.9,57.6H53.3c-1.2,0-2.1-0.9-2.1-2.1V31.4c0-1.2,0.9-2.1,2.1-2.1h17.6c1.2,0,2.1,0.9,2.1,2.1v24.2
		C73,56.7,72.1,57.6,70.9,57.6z M55.4,53.4h13.3v-20H55.4V53.4z"/>
</g>
<g>
	<g>
		<g>
			<path class="st1" d="M37.5,57.8H23.1c-0.7,0-1.4-0.4-1.8-1c-0.4-0.6-0.5-1.3-0.2-2l2.7-6.2c0.5-1.1,1.7-1.6,2.8-1.1
				c1.1,0.5,1.6,1.7,1.1,2.8l-1.4,3.3h8.1l-1.2-3.3c-0.4-1.1,0.2-2.3,1.3-2.7c1.1-0.4,2.3,0.2,2.7,1.3l2.2,6.1
				c0.2,0.6,0.1,1.4-0.3,1.9C38.8,57.5,38.2,57.8,37.5,57.8z"/>
		</g>
	</g>
</g>
<path class="st1" d="M62.1,57.2c0.9,0,1.7-0.8,1.7-1.7c0-0.9-0.8-1.7-1.7-1.7s-1.7,0.8-1.7,1.7C60.4,56.4,61.2,57.2,62.1,57.2"/>
</svg>
