<?xml version="1.0" encoding="utf-8"?>
<!-- Generator: Adobe Illustrator 21.1.0, SVG Export Plug-In . SVG Version: 6.00 Build 0)  -->
<svg version="1.1" id="Calque_1" xmlns="http://www.w3.org/2000/svg" xmlns:xlink="http://www.w3.org/1999/xlink" x="0px" y="0px"
	 viewBox="0 0 75 75" style="enable-background:new 0 0 75 75;" xml:space="preserve">
<style type="text/css">
	.st0{fill:#AD9A6B;}
	.st1{fill:#77777A;}
</style>
<g>
	<path class="st0" d="M32.8,48.6c-8.7,0-15.7-7-15.7-15.7s7-15.7,15.7-15.7c8.7,0,15.7,7,15.7,15.7S41.4,48.6,32.8,48.6z M32.8,21.7
		c-6.2,0-11.2,5-11.2,11.2s5,11.2,11.2,11.2S44,39.1,44,32.9S39,21.7,32.8,21.7z"/>
</g>
<g>
	<g>
		<g>
			<path class="st1" d="M54.4,57.6c-0.6,0-1.2-0.2-1.6-0.7L40.3,44.4c-0.9-0.9-0.9-2.3,0-3.2c0.9-0.9,2.3-0.9,3.2,0l12.5,12.5
				c0.9,0.9,0.9,2.3,0,3.2C55.5,57.3,54.9,57.6,54.4,57.6z"/>
		</g>
	</g>
</g>
</svg>
