<?xml version="1.0" encoding="utf-8"?>
<!-- Generator: Adobe Illustrator 21.1.0, SVG Export Plug-In . SVG Version: 6.00 Build 0)  -->
<svg version="1.1" id="Calque_1" xmlns="http://www.w3.org/2000/svg" xmlns:xlink="http://www.w3.org/1999/xlink" x="0px" y="0px"
	 viewBox="0 0 75 75" style="enable-background:new 0 0 75 75;" xml:space="preserve">
<style type="text/css">
	.st0{fill:#77777A;}
	.st1{fill:#B5A26C;}
</style>
<g>
	<g>
		<path class="st0" d="M3.2,57.9c-0.6,0-1-0.2-1.2-0.4c-1.7-1.2-1.4-4.5-0.6-6.3c0.8-1.9,2.9-3.8,6.5-7.2c0.2-1.1,0.5-2.3,0.7-3.6
			c-2,1.1-3.7,1.2-4.9,0.8C3,40.9,2,40.3,1.6,38.6c-0.8-3.3,0.9-9.8,4.3-13.7c1.8-2,3.5-2.8,5.2-2.4c2.5,0.6,3.4,3.7,3.4,4
			c0.2,0.8-0.3,1.6-1.1,1.9c-0.8,0.2-1.6-0.3-1.9-1.1l0,0c-0.2-0.7-0.7-1.7-1.2-1.8C10,25.4,9.2,25.8,8.1,27
			c-2.4,2.6-3.8,7.3-3.7,10c0.1,0.9,0.3,1.2,0.3,1.3c0.6,0.2,2.3-0.2,4.5-2.2c1.1-6,1.9-6.7,2.9-6.9c0.7-0.1,1.4,0.2,1.8,0.8
			c0.7,1.2,0.6,4.5-0.5,5.9c-0.5,0.6-0.9,1.1-1.4,1.6c0,0.1,0,0.3-0.1,0.4c-0.1,0.9-0.3,1.7-0.4,2.5c1.7-1.5,4.2-3.9,4.8-4.7
			c0.7-1.3,1.5-2.4,1.8-2.7c0.5-0.6,1.4-0.8,2-0.3c0.7,0.4,0.9,1.3,0.5,2c0,0.1-0.8,1.4-1.6,2.6c-0.4,0.7-0.6,1.4-0.6,1.9
			c0,0.3,0.1,0.3,0.1,0.3c0.1,0.1,0.7,0.1,1.7-0.3c1.5-0.7,2.1-1.2,2.1-1.2c0.1,0,0.1-0.1,0.2-0.1c2.8-1.6,5.2-4.4,6.8-8l0.7-1.7
			c0.3-0.8,1.2-1.2,1.9-0.9c0.8,0.3,1.2,1.1,0.9,1.9c-0.2,0.6-0.5,1.3-0.8,1.9L28.6,40c0.6-0.5,1.2-0.8,1.9-1.1
			c1.3-0.4,2.5-0.3,3.6,0.3c3.1,1.8,8.6,1.9,12.4,0.3c0.2-0.1,0.4-0.2,0.7-0.3l0,0c-0.3-2.2,1.6-4,2.5-4.7c0.4-0.4,1.7-1.5,3-1.1
			c0.7,0.2,1.2,0.8,1.3,1.6c0,0.2,0,0.4,0,0.6c-0.4,1.6-1.3,3-2.5,4.2l0.1,0.1c1.9,0.9,3.9,0,6.4-1.1c2.1-0.9,4.2-1.8,6.6-1.8
			c4.8,0,7.3-0.1,7.3-0.1c0.9,0,1.5,0.6,1.6,1.4c0,0.8-0.6,1.5-1.4,1.6c-0.1,0-2.6,0.1-7.5,0.1c-1.7,0-3.5,0.8-5.4,1.6
			c-2.7,1.2-5.8,2.6-8.9,1c-0.6-0.3-1-0.6-1.4-0.9c-0.4,0.2-0.7,0.4-1.1,0.5c-4.7,2-11.2,1.7-15.1-0.5c-0.2-0.1-0.6-0.3-1.1-0.1
			c-3,1.1-7.1,8.8-9.1,13.8L22.2,56c-0.3,0.8-1.2,1.2-2,0.8c-0.8-0.3-1.2-1.2-0.9-2c0-0.1,0.1-0.2,0.1-0.4l5.9-14.9
			c-0.4,0.3-0.8,0.6-1.3,0.8c-0.3,0.2-1.1,0.8-2.7,1.5c-1.7,0.8-3.3,0.9-4.5,0.2c-0.6-0.3-1-0.8-1.3-1.4c-1,0.9-1.9,1.7-2.2,2
			c-1,1-2,1.9-2.9,2.7c0,0,0,0-0.1,0.1C8.6,52.7,7,54.8,5.1,56.6C4.5,57.6,3.8,57.9,3.2,57.9z M6.3,49.7c-1.1,1.1-1.8,2-2.1,2.7
			c-0.2,0.5-0.3,1.2-0.4,1.7C4.6,53.2,5.5,52,6.3,49.7z"/>
	</g>
</g>
<g>
	<path class="st1" d="M71.8,30.9h-13c-0.9,0-1.6-0.7-1.6-1.6V18.6c0-0.9,0.7-1.6,1.6-1.6h13c0.9,0,1.6,0.7,1.6,1.6v10.7
		C73.5,30.2,72.7,30.9,71.8,30.9z M60.5,27.6h9.7v-7.4h-9.7C60.5,20.2,60.5,27.6,60.5,27.6z"/>
</g>
<g>
	<g>
		<g>
			<path class="st1" d="M71.8,20.1c-0.9,0-1.6-0.7-1.6-1.6c0-2.3-2.2-4.2-4.8-4.2c-2.7,0-4.8,1.9-4.8,4.2c0,0.9-0.7,1.6-1.6,1.6
				s-1.6-0.7-1.6-1.6c0-4.2,3.6-7.5,8.1-7.5s8.1,3.4,8.1,7.5C73.4,19.4,72.7,20.1,71.8,20.1z"/>
		</g>
	</g>
</g>
<g>
	<path class="st1" d="M65.3,25.4c0.8,0,1.5-0.7,1.5-1.5s-0.7-1.5-1.5-1.5s-1.5,0.7-1.5,1.5C63.9,24.7,64.5,25.4,65.3,25.4"/>
</g>
</svg>
