<?xml version="1.0" encoding="utf-8"?>
<!-- Generator: Adobe Illustrator 21.1.0, SVG Export Plug-In . SVG Version: 6.00 Build 0)  -->
<svg version="1.1" id="Calque_1" xmlns="http://www.w3.org/2000/svg" xmlns:xlink="http://www.w3.org/1999/xlink" x="0px" y="0px"
	 viewBox="0 0 75 75" style="enable-background:new 0 0 75 75;" xml:space="preserve">
<style type="text/css">
	.st0{fill:#AD9A6B;}
	.st1{fill:#FFFFFF;}
	.st2{fill:#77777A;}
</style>
<path class="st0" d="M19.6,50.1c0-1.3,0.3-2.6,0.7-3.8H5.5c0.5-2.2,1.6-4.3,3.1-6c1.8-1.7,4-2.7,6.1-2.7c3.4,0,6.3,2.3,8,5.3
	c1.1-1.1,2.4-1.9,3.8-2.4c-2.5-4.3-6.9-7.3-11.7-7.3c-3.3,0-6.5,1.4-9.1,4C2.8,40.2,1,44.4,1,48.4c0,1.2,1,2.2,2.2,2.2h16.5
	C19.7,50.4,19.6,50.3,19.6,50.1z"/>
<g>
	<g>
		<g>
			<path class="st1" d="M14.8,35.5c2.9,0,5.3-2.4,5.3-5.3s-2.4-5.3-5.3-5.3s-5.3,2.4-5.3,5.3C9.5,33.2,11.9,35.5,14.8,35.5"/>
		</g>
		<g>
			<path class="st2" d="M14.8,37.7c-4.1,0-7.5-3.3-7.5-7.5c0-4.1,3.3-7.5,7.5-7.5c4.1,0,7.5,3.3,7.5,7.5
				C22.3,34.3,18.9,37.7,14.8,37.7z M14.8,27.1c-1.7,0-3.1,1.4-3.1,3.1s1.4,3.1,3.1,3.1S18,32,18,30.2C18,28.5,16.6,27.1,14.8,27.1z
				"/>
		</g>
	</g>
</g>
<g>
	<path class="st0" d="M55.5,58h-36c-1.2,0-2.2-1-2.2-2.2c0-5.9,2.6-12,6.9-16.4c3.8-3.8,8.5-5.8,13.2-5.8
		c11.5,0,20.2,11.7,20.2,22.2C57.7,57,56.7,58,55.5,58z M21.8,53.7h31.4C52.1,44.5,44.4,38,37.5,38c-3.6,0-7.2,1.6-10.2,4.6
		C24.3,45.5,22.3,49.6,21.8,53.7z"/>
</g>
<g>
	<g>
		<g>
			<path class="st1" d="M37.5,35.9c4.5,0,8.2-3.7,8.2-8.2s-3.7-8.2-8.2-8.2s-8.2,3.7-8.2,8.2C29.3,32.3,33,35.9,37.5,35.9"/>
		</g>
		<g>
			<path class="st2" d="M37.5,38.1c-5.7,0-10.3-4.6-10.3-10.3s4.6-10.3,10.3-10.3s10.3,4.6,10.3,10.3S43.2,38.1,37.5,38.1z
				 M37.5,21.7c-3.3,0-6,2.7-6,6s2.7,6,6,6s6-2.7,6-6S40.8,21.7,37.5,21.7z"/>
		</g>
	</g>
</g>
<path class="st0" d="M60.1,33.2c-3.3,0-6.5,1.4-9.1,4c-0.9,1-1.7,2.1-2.4,3.2c1.2,1,2.3,2.3,3,3.7c0.6-1.4,1.4-2.7,2.4-3.8
	c1.8-1.7,4-2.7,6.1-2.7c4.6,0,8.3,4.3,9.3,8.7H52.5c0.3,1.1,0.5,2.3,0.5,3.6c0,0.2,0,0.5,0,0.7h18.8c1.2,0,2.2-1,2.1-2.2
	C73.9,40.3,67.5,33.2,60.1,33.2z"/>
<g>
	<g>
		<g>
			<path class="st1" d="M60.2,35.5c2.9,0,5.3-2.4,5.3-5.3s-2.4-5.3-5.3-5.3c-2.9,0-5.3,2.4-5.3,5.3C54.9,33.2,57.2,35.5,60.2,35.5"
				/>
		</g>
		<g>
			<path class="st2" d="M60.2,37.7c-4.1,0-7.5-3.3-7.5-7.5c0-4.1,3.3-7.5,7.5-7.5c4.1,0,7.5,3.3,7.5,7.5
				C67.6,34.3,64.3,37.7,60.2,37.7z M60.2,27.1c-1.7,0-3.1,1.4-3.1,3.1s1.4,3.1,3.1,3.1c1.7,0,3.1-1.4,3.1-3.1
				C63.3,28.5,61.9,27.1,60.2,27.1z"/>
		</g>
	</g>
</g>
</svg>
