<?xml version="1.0" encoding="utf-8"?>
<!-- Generator: Adobe Illustrator 21.1.0, SVG Export Plug-In . SVG Version: 6.00 Build 0)  -->
<svg version="1.1" id="Calque_1" xmlns="http://www.w3.org/2000/svg" xmlns:xlink="http://www.w3.org/1999/xlink" x="0px" y="0px"
	 viewBox="0 0 75 75" style="enable-background:new 0 0 75 75;" xml:space="preserve">
<style type="text/css">
	.st0{fill:none;stroke:#6D7175;stroke-width:3.5;stroke-linecap:round;stroke-linejoin:round;}
	.st1{fill:none;stroke:#B5A26C;stroke-width:4.5;stroke-linecap:round;stroke-linejoin:round;}
</style>
<rect x="9.2" y="43.6" class="st0" width="6.1" height="19.9"/>
<path class="st0" d="M29.2,50.9h15.9c1.8,0,3.3-1.4,3.3-3.1c0-1.7-1.5-3.1-3.3-3.1v0h-6.4c-1.8,0-3.5-0.5-5.2-1
	c-1.8-0.5-3.8-1.1-6-1.1c-3.7,0-5.5,0.9-7.9,2c-1,0.5-2.2,1-3.6,1.6"/>
<path class="st0" d="M16.3,61c3.3-0.9,7-1.4,11.1-1.4l0.6,0c4.1,0,6.3,0.2,9.2,0.9c1.6,0.4,3.2,0.3,4.8-0.4
	c5.7-2.4,15.2-7.2,20.7-10.2c2.9-1.6,2.8-3.5,2.6-4.2c-0.4-1.3-1.6-2.2-3.1-2.2c-0.5,0-1,0.1-1.5,0.3c-1.9,0.9-8.8,4-11.7,5.2"/>
<path class="st1" d="M47.9,28.7c-2.1-3.9-6-6.9-10.4-6.9c-6.7,0-12.1,6.8-12.1,13.5h20.3"/>
<g>
	<g>
		<circle class="st1" cx="37.4" cy="16.4" r="5.5"/>
	</g>
</g>
<path class="st1" d="M26.9,28.7c-2.1-3.9-6-6.9-10.4-6.9c-6.7,0-12.1,6.8-12.1,13.5h20.3"/>
<g>
	<g>
		<circle class="st1" cx="16.5" cy="16.4" r="5.5"/>
	</g>
</g>
<path class="st1" d="M70.3,35.3c0-6.4-5.4-12.9-12.1-12.9c-6.7,0-12.1,6.5-12.1,12.9H70.3L70.3,35.3z"/>
<g>
	<g>
		<circle class="st1" cx="58.1" cy="16.6" r="5.5"/>
	</g>
</g>
</svg>
