<?xml version="1.0" encoding="utf-8"?>
<!-- Generator: Adobe Illustrator 21.1.0, SVG Export Plug-In . SVG Version: 6.00 Build 0)  -->
<svg version="1.1" id="Calque_1" xmlns="http://www.w3.org/2000/svg" xmlns:xlink="http://www.w3.org/1999/xlink" x="0px" y="0px"
	 viewBox="0 0 75 75" style="enable-background:new 0 0 75 75;" xml:space="preserve">
<style type="text/css">
	.st0{fill:#B5A26C;}
	.st1{fill:#6D7175;}
</style>
<g>
	<g>
		<g>
			<path class="st0" d="M46.6,57.3H9.2c-1.2,0-2.2-1-2.2-2.2c0-6.2,2.7-12.5,7.2-17.1c3.9-3.9,8.8-6.1,13.8-6.1
				c5.4,0,10.6,2.5,14.6,7c0.8,0.9,0.8,2.3-0.2,3.2c-0.9,0.8-2.3,0.8-3.2-0.2c-3.2-3.5-7.2-5.5-11.3-5.5c-3.8,0-7.5,1.7-10.6,4.7
				c-3.1,3.1-5.2,7.4-5.7,11.6h35c1.2,0,2.3,1,2.3,2.2S47.9,57.3,46.6,57.3z"/>
		</g>
		<g>
			<g>
				<g>
					<path class="st0" d="M27.9,36.5c-5.9,0-10.8-4.8-10.8-10.8c0-5.9,4.8-10.8,10.8-10.8c5.9,0,10.8,4.8,10.8,10.8
						C38.7,31.7,33.8,36.5,27.9,36.5z M27.9,19.5c-3.5,0-6.3,2.8-6.3,6.3c0,3.5,2.8,6.3,6.3,6.3c3.5,0,6.3-2.8,6.3-6.3
						C34.2,22.3,31.3,19.5,27.9,19.5z"/>
				</g>
			</g>
		</g>
		<path class="st1" d="M27.9,40.1c1.8,0,3.3-0.9,3.3-2c0-1.1-1.5-2-3.3-2s-3.3,0.9-3.3,2C24.6,39.2,26.1,40.1,27.9,40.1"/>
	</g>
	<g>
		<path class="st1" d="M29.6,51h-3.4c-0.5,0-1-0.2-1.3-0.6c-0.3-0.4-0.5-0.9-0.4-1.4l1.7-8.8c0.2-0.8,0.9-1.4,1.7-1.4h0
			c0.8,0,1.5,0.6,1.7,1.4l1.7,8.8c0.1,0.5,0,1-0.4,1.4C30.6,50.8,30.1,51,29.6,51z"/>
	</g>
	<g>
		<g>
			<path class="st1" d="M53.8,61c-0.2,0-0.5,0-0.7-0.1c-11.7-4.1-14.2-14-13.9-18.7v-9.4c0-1,0.6-1.8,1.5-2.1l12.4-4.1
				c0.5-0.2,1-0.2,1.4,0l12.4,4.1c0.9,0.3,1.5,1.2,1.5,2.1v9.4c0.3,4.8-2.2,14.7-13.9,18.7C54.3,60.9,54.1,61,53.8,61z M43.7,42.3
				c0,0.4-0.4,9.9,10.2,14C64.4,52.2,64,42.7,64,42.3c0,0,0-0.1,0-0.1v-7.8L53.8,31l-10.1,3.4v7.8C43.7,42.2,43.7,42.3,43.7,42.3z
				 M41.4,42.2L41.4,42.2L41.4,42.2z"/>
		</g>
	</g>
</g>
</svg>
