<?xml version="1.0" encoding="utf-8"?>
<!-- Generator: Adobe Illustrator 21.1.0, SVG Export Plug-In . SVG Version: 6.00 Build 0)  -->
<svg version="1.1" id="Calque_1" xmlns="http://www.w3.org/2000/svg" xmlns:xlink="http://www.w3.org/1999/xlink" x="0px" y="0px"
	 viewBox="0 0 75 75" style="enable-background:new 0 0 75 75;" xml:space="preserve">
<style type="text/css">
	.st0{fill:none;stroke:#B5A26C;stroke-width:4.5;stroke-linecap:round;stroke-linejoin:round;}
	.st1{fill:#FFFFFF;}
	.st2{fill:#77777A;}
	.st3{fill:none;stroke:#77777A;stroke-width:3;stroke-linecap:round;stroke-linejoin:round;}
	.st4{fill:#6D7175;}
	.st5{fill:none;stroke:#6D7175;stroke-width:3.465;stroke-linecap:round;stroke-linejoin:round;}
</style>
<g>
	<path class="st0" d="M56.3,62.4c0-10.4-8.4-20.9-18.7-20.9S18.8,52.1,18.8,62.4H56.3L56.3,62.4z"/>
	<g>
		<g>
			<circle class="st0" cx="37.5" cy="33.2" r="8.5"/>
		</g>
	</g>
</g>
<rect x="29.7" y="20.1" class="st1" width="15.9" height="5.3"/>
<polygon class="st2" points="29.2,21.4 29.2,25.9 45.8,25.9 45.8,21.4 37.5,25 "/>
<polygon class="st1" points="22.4,16 37.5,22.5 52.6,15.7 37.6,9.2 "/>
<g>
	<polygon class="st3" points="22.4,16 37.5,22.5 52.6,15.7 37.6,9.2 	"/>
</g>
<line class="st3" x1="50.7" y1="17.7" x2="50.7" y2="28"/>
<g>
	<path class="st4" d="M37.5,47.6c1.8,0,3.3-0.9,3.3-2s-1.5-2-3.3-2s-3.3,0.9-3.3,2C34.2,46.8,35.7,47.6,37.5,47.6"/>
</g>
<polygon class="st5" points="37.5,48 39.2,56.8 35.8,56.8 "/>
</svg>
