<?xml version="1.0" encoding="utf-8"?>
<!-- Generator: Adobe Illustrator 21.1.0, SVG Export Plug-In . SVG Version: 6.00 Build 0)  -->
<svg version="1.1" id="Calque_1" xmlns="http://www.w3.org/2000/svg" xmlns:xlink="http://www.w3.org/1999/xlink" x="0px" y="0px"
	 viewBox="0 0 75 75" style="enable-background:new 0 0 75 75;" xml:space="preserve">
<style type="text/css">
	.st0{fill:#B5A26C;}
	.st1{fill:#6D7175;}
</style>
<g>
	<g>
		<path class="st0" d="M24.7,46.6H3.2c-1.2,0-2.2-1-2.2-2.2C1,40.3,2.8,36,5.8,33c2.6-2.6,5.9-4.1,9.3-4.1c4.9,0,9.5,3,12.1,7.9
			c0.6,1.1,0.2,2.4-0.9,3c-1.1,0.6-2.4,0.2-3-0.9c-1.9-3.5-5-5.6-8.3-5.6c-2.2,0-4.4,1-6.2,2.8c-1.7,1.7-2.8,3.8-3.3,6h19.1
			c1.2,0,2.2,1,2.2,2.2C27,45.6,26,46.6,24.7,46.6z"/>
	</g>
	<g>
		<g>
			<g>
				<path class="st0" d="M15.1,33.4c-4.2,0-7.6-3.4-7.6-7.6c0-4.2,3.4-7.6,7.6-7.6c4.2,0,7.6,3.4,7.6,7.6
					C22.7,30,19.3,33.4,15.1,33.4z M15.1,22.6c-1.8,0-3.2,1.4-3.2,3.2c0,1.8,1.4,3.2,3.2,3.2c1.8,0,3.2-1.4,3.2-3.2
					C18.3,24,16.8,22.6,15.1,22.6z"/>
			</g>
		</g>
	</g>
	<path class="st1" d="M15.1,35.2c0.9,0,1.6-0.4,1.6-1s-0.7-1-1.6-1s-1.6,0.4-1.6,1S14.2,35.2,15.1,35.2"/>
</g>
<g>
	<path class="st1" d="M15.9,40.5h-1.7c-0.3,0-0.5-0.1-0.7-0.3c-0.2-0.2-0.2-0.5-0.2-0.7l0.8-4.3c0.1-0.4,0.4-0.7,0.8-0.7l0,0
		c0.4,0,0.8,0.3,0.8,0.7l0.8,4.3c0,0.2,0,0.5-0.2,0.7C16.4,40.4,16.2,40.5,15.9,40.5z"/>
</g>
<g>
	<g>
		<path class="st0" d="M71.8,46.6H49.7c-1.2,0-2.2-1-2.2-2.2c0-1.2,1-2.2,2.2-2.2h19.6c-1-4.5-4.8-8.8-9.4-8.8
			c-3.2,0-6.3,2.1-8.2,5.4c-0.6,1.1-1.9,1.4-3,0.8c-1.1-0.6-1.4-1.9-0.8-3c2.7-4.7,7.2-7.7,12-7.7c7.5,0,14.1,7.2,14.1,15.4
			C74,45.6,73,46.6,71.8,46.6z"/>
	</g>
	<g>
		<g>
			<g>
				<path class="st0" d="M59.9,33.4c-4.2,0-7.6-3.4-7.6-7.6c0-4.2,3.4-7.6,7.6-7.6c4.2,0,7.6,3.4,7.6,7.6
					C67.5,30,64.1,33.4,59.9,33.4z M59.9,22.6c-1.8,0-3.2,1.4-3.2,3.2c0,1.8,1.4,3.2,3.2,3.2c1.8,0,3.2-1.4,3.2-3.2
					C63.1,24,61.7,22.6,59.9,22.6z"/>
			</g>
		</g>
	</g>
	<path class="st1" d="M59.9,35.2c0.9,0,1.6-0.4,1.6-1s-0.7-1-1.6-1c-0.9,0-1.6,0.4-1.6,1S59,35.2,59.9,35.2"/>
</g>
<g>
	<path class="st1" d="M60.7,40.5h-1.7c-0.3,0-0.5-0.1-0.7-0.3c-0.2-0.2-0.2-0.5-0.2-0.7l0.8-4.3c0.1-0.4,0.4-0.7,0.8-0.7l0,0
		c0.4,0,0.8,0.3,0.8,0.7l0.8,4.3c0,0.2,0,0.5-0.2,0.7C61.2,40.4,61,40.5,60.7,40.5z"/>
</g>
<g>
	<path class="st1" d="M37.5,62.1c-0.2,0-0.5,0-0.7-0.1c-11.4-4-13.9-13.7-13.6-18.3v-9.2c0-0.9,0.6-1.8,1.5-2.1l12.1-4
		c0.5-0.2,0.9-0.2,1.4,0l12.1,4c0.9,0.3,1.5,1.1,1.5,2.1v9.2C52.1,48.3,49.7,58,38.2,62C38,62.1,37.7,62.1,37.5,62.1z M27.6,43.9
		c0,0.4-0.4,9.7,9.9,13.7C48,53.5,47.4,44,47.4,43.9c0-0.1,0-0.1,0-0.2v-7.7l-9.9-3.3l-9.9,3.3v7.7C27.6,43.8,27.6,43.8,27.6,43.9z
		 M25.4,43.7L25.4,43.7L25.4,43.7z"/>
</g>
</svg>
