<?xml version="1.0" encoding="utf-8"?>
<!-- Generator: Adobe Illustrator 21.1.0, SVG Export Plug-In . SVG Version: 6.00 Build 0)  -->
<svg version="1.1" id="Calque_1" xmlns="http://www.w3.org/2000/svg" xmlns:xlink="http://www.w3.org/1999/xlink" x="0px" y="0px"
	 viewBox="0 0 75 75" style="enable-background:new 0 0 75 75;" xml:space="preserve">
<style type="text/css">
	.st0{fill:#B5A26C;}
	.st1{fill:none;stroke:#6D7175;stroke-width:4.5;stroke-linecap:round;stroke-linejoin:round;}
	.st2{opacity:0.8;}
	.st3{fill:none;stroke:#6D7175;stroke-width:3.5;stroke-linecap:round;stroke-linejoin:round;}
</style>
<g>
	<g>
		<path class="st0" d="M46.1,57H14.4c-1.2,0-2.2-1-2.2-2.2c0-12,9.6-22.6,20.5-22.6c5.7,0,11.1,2.8,15.1,7.6c0.8,1,0.6,2.4-0.3,3.2
			c-1,0.8-2.4,0.6-3.2-0.3c-3-3.8-7.3-6-11.5-6c-8.3,0-14.7,7.9-15.8,15.8h29.3c1.2,0,2.2,1,2.2,2.2S47.3,57,46.1,57z"/>
	</g>
	<circle class="st1" cx="32.6" cy="26.2" r="8.3"/>
	<g class="st2">
		<g>
			<rect x="46.3" y="42.4" class="st3" width="15.7" height="12.9"/>
		</g>
	</g>
	<g>
		<path class="st0" d="M54.1,50.7c1,0,1.8-0.8,1.8-1.8s-0.8-1.8-1.8-1.8s-1.8,0.8-1.8,1.8C52.4,49.9,53.2,50.7,54.1,50.7"/>
	</g>
	<path class="st3" d="M61.9,42.3c0-3.8-3.4-6.9-7.6-6.9s-7.6,3.1-7.6,6.9"/>
</g>
</svg>
