<?xml version="1.0" encoding="utf-8"?>
<!-- Generator: Adobe Illustrator 21.1.0, SVG Export Plug-In . SVG Version: 6.00 Build 0)  -->
<svg version="1.1" id="Calque_1" xmlns="http://www.w3.org/2000/svg" xmlns:xlink="http://www.w3.org/1999/xlink" x="0px" y="0px"
	 viewBox="0 0 75 75" style="enable-background:new 0 0 75 75;" xml:space="preserve">
<style type="text/css">
	.st0{fill:none;stroke:#B5A26C;stroke-width:4.5;stroke-linejoin:round;}
	.st1{fill:none;stroke:#B5A26C;stroke-width:3.5;stroke-linecap:round;stroke-linejoin:round;}
	.st2{fill:none;stroke:#6E7175;stroke-width:3.5;stroke-linecap:round;stroke-linejoin:round;}
</style>
<path class="st0" d="M71.2,26.9c0,0,0-11.5-11.5-11.5H16.1c0,0-11.5,0-11.5,11.5v20.6c0,0,0,11.5,11.5,11.5h43.5
	c0,0,11.5,0,11.5-11.5V26.9z"/>
<path class="st1" d="M33.4,47c0-5.4-4.4-10.8-9.7-10.8c-5.4,0-9.7,5.5-9.7,10.8H33.4L33.4,47z"/>
<g>
	<g>
		<circle class="st2" cx="23.7" cy="31.8" r="4.4"/>
	</g>
</g>
<g>
	<g>
		<line class="st2" x1="40.9" y1="27.5" x2="58.5" y2="27.5"/>
	</g>
</g>
<g>
	<g>
		<line class="st2" x1="40.9" y1="33.9" x2="52.2" y2="33.9"/>
	</g>
</g>
<g>
	<g>
		<line class="st2" x1="40.9" y1="40.3" x2="61.8" y2="40.3"/>
	</g>
</g>
<g>
	<g>
		<line class="st2" x1="40.9" y1="46.7" x2="58.5" y2="46.7"/>
	</g>
</g>
</svg>
