<?xml version="1.0" encoding="utf-8"?>
<!-- Generator: Adobe Illustrator 21.1.0, SVG Export Plug-In . SVG Version: 6.00 Build 0)  -->
<svg version="1.1" id="Calque_1" xmlns="http://www.w3.org/2000/svg" xmlns:xlink="http://www.w3.org/1999/xlink" x="0px" y="0px"
	 viewBox="0 0 75 75" style="enable-background:new 0 0 75 75;" xml:space="preserve">
<style type="text/css">
	.st0{fill:#AD9A6B;}
	.st1{fill:#77777A;}
</style>
<g>
	<g>
		<g>
			<g>
				<path class="st0" d="M38.9,58.4C27.4,58.4,18,49,18,37.4c0-11.5,9.4-20.9,20.9-20.9s20.9,9.4,20.9,20.9
					C59.8,49,50.4,58.4,38.9,58.4z M38.9,21c-9.1,0-16.4,7.4-16.4,16.4c0,9.1,7.4,16.4,16.4,16.4s16.4-7.4,16.4-16.4
					C55.3,28.4,47.9,21,38.9,21z"/>
			</g>
		</g>
	</g>
	<g>
		<g>
			<g>
				<path class="st1" d="M33.9,48.6c-0.4,0-0.7-0.1-1.1-0.3c-0.7-0.4-1.2-1.2-1.2-2l0-17.7c0-0.8,0.5-1.6,1.2-2
					c0.7-0.4,1.6-0.3,2.3,0.1l13.4,8.9c0.6,0.4,1,1.1,1,1.9s-0.4,1.5-1,1.9l-13.4,8.8C34.8,48.5,34.3,48.6,33.9,48.6z M36.2,32.9
					l0,9.4l7.1-4.7L36.2,32.9z"/>
			</g>
		</g>
	</g>
</g>
</svg>
