<?xml version="1.0" encoding="utf-8"?>
<!-- Generator: Adobe Illustrator 21.0.2, SVG Export Plug-In . SVG Version: 6.00 Build 0)  -->
<svg version="1.1" id="Calque_1" xmlns="http://www.w3.org/2000/svg" xmlns:xlink="http://www.w3.org/1999/xlink" x="0px" y="0px"
	 viewBox="0 0 320 213" style="enable-background:new 0 0 320 213;" xml:space="preserve">
<style type="text/css">
	.st0{fill:none;enable-background:new    ;}
	.st1{fill:#62A8EA;}
	.st2{fill:#FFFFFF;}
	.st3{fill:#F96868;}
</style>
<path class="st0" d="z"/>
<rect x="-2" y="-1" class="st1" width="323.7" height="217"/>
<rect x="126.4" y="-58.1" transform="matrix(-1.836970e-16 1 -1 -1.836970e-16 268.6021 -55.9854)" class="st2" width="71.8" height="328.7"/>
<rect x="133.4" y="-11.6" class="st2" width="53.7" height="246"/>
<rect x="140" y="-90.9" transform="matrix(0.5532 -0.8331 0.8331 0.5532 -16.7205 180.4165)" class="st2" width="39.7" height="393.5"/>
<rect x="137.6" y="-88.9" transform="matrix(0.5551 0.8318 -0.8318 0.5551 159.7371 -83.0364)" class="st2" width="39.7" height="393.5"/>
<rect x="-2" y="85" class="st3" width="322.7" height="42.7"/>
<rect x="144.6" y="-3" class="st3" width="31.3" height="219"/>
<polygon class="st3" points="215.2,70 322,-0.1 314,-12.2 188.8,70 "/>
<polygon class="st3" points="80.9,70 -25.9,-0.1 -17.9,-12.2 107.3,70 "/>
<polygon class="st3" points="237.9,142.1 344.6,212.2 336.7,224.3 211.5,142.1 "/>
<polygon class="st3" points="103.9,142.8 -2.9,212.9 5.1,225 130.3,142.8 "/>
</svg>
